<svg width="21" height="16" viewBox="0 0 21 16" fill="none" xmlns="http://www.w3.org/2000/svg">
	<path
		d="M12.2287 14.7108C11.9309 14.9986 11.9229 15.4734 12.2108 15.7713C12.4986 16.0691 12.9735 16.0771 13.2713 15.7892L20.7713 8.53924C20.9175 8.39793 21 8.20332 21 8C21 7.79668 20.9175 7.60207 20.7713 7.46076L13.2713 0.210757C12.9735 -0.0771305 12.4986 -0.0690835 12.2108 0.228731C11.9229 0.526546 11.9309 1.00135 12.2287 1.28924L18.395 7.25L0.750001 7.25C0.335788 7.25 7.35594e-07 7.58578 6.99382e-07 8C6.63171e-07 8.41421 0.335787 8.75 0.750001 8.75L18.395 8.75L12.2287 14.7108Z"
		fill="white" />
</svg>