<svg width="56" height="56" viewBox="0 0 56 56" fill="none" xmlns="http://www.w3.org/2000/svg">
<circle cx="28" cy="28" r="28" fill="#B5DEFF"/>
<g opacity="0.8">
<path d="M28 32.3167V33.0283H16.3333V32.3167C16.3333 30.2633 16.8466 29.75 18.9233 29.75H25.41C27.4867 29.75 28 30.2633 28 32.3167Z" fill="black"/>
<path d="M16.3333 33.0283V34.7783V37.1C16.3333 39.1533 16.8466 39.6667 18.9233 39.6667H25.41C27.4867 39.6667 28 39.1533 28 37.1V34.7783V33.0283H16.3333Z" fill="black"/>
<g opacity="0.4">
<path fill-rule="evenodd" clip-rule="evenodd" d="M39.6666 30.6249C40.1499 30.6249 40.5416 31.0166 40.5416 31.4999C40.5416 36.4981 36.4982 40.5415 31.5 40.5415C31.1847 40.5415 30.8939 40.372 30.7385 40.0977C30.5832 39.8233 30.5875 39.4867 30.7497 39.2164L31.9746 37.1747C32.2233 36.7603 32.7608 36.6259 33.1751 36.8746C33.5895 37.1232 33.7239 37.6607 33.4753 38.0751L33.1587 38.6026C36.3894 37.8531 38.7916 34.9609 38.7916 31.4999C38.7916 31.0166 39.1834 30.6249 39.6666 30.6249Z" fill="#242C33"/>
<path fill-rule="evenodd" clip-rule="evenodd" d="M22.8412 17.3972C19.6106 18.1467 17.2083 21.0389 17.2083 24.4999C17.2083 24.9832 16.8166 25.3749 16.3333 25.3749C15.8501 25.3749 15.4583 24.9832 15.4583 24.4999C15.4583 19.5017 19.5017 15.4583 24.5 15.4583C24.8152 15.4583 25.1061 15.6278 25.2614 15.9021C25.4167 16.1765 25.4125 16.5131 25.2503 16.7834L24.0253 18.8251C23.7767 19.2395 23.2392 19.3739 22.8248 19.1252C22.4104 18.8766 22.2761 18.3391 22.5247 17.9247L22.8412 17.3972Z" fill="#242C33"/>
</g>
<path d="M40.8333 21.5834H30.3333C30.3333 24.4767 32.6899 26.8334 35.5833 26.8334C38.4883 26.8334 40.8333 24.4767 40.8333 21.5834Z" fill="black"/>
<path d="M40.8333 21.5834C40.8333 18.6784 38.4883 16.3334 35.5833 16.3334C32.69 16.3334 30.3333 18.6784 30.3333 21.5834H40.8333Z" fill="black"/>
</g>
</svg>
