<svg xmlns="http://www.w3.org/2000/svg" width="32" height="32" viewBox="0 0 32 32" fill="none">
	<path
		d="M27.8331 19.1318C27.2663 19.4729 26.6052 19.5349 26.1014 19.2558C25.4717 18.8837 25.0939 18.0465 25.0939 16.8992V13.3954C25.0939 11.7209 24.4327 10.5116 23.2992 10.2015C21.3786 9.64341 19.9303 11.969 19.395 12.8372L15.9946 18.2016V11.5969C15.9631 10.0775 15.4593 9.1783 14.5148 8.89923C13.8851 8.71318 12.9405 8.80621 12.0274 10.1705L4.43944 22.1395C3.43191 20.2481 2.89666 18.1395 2.89666 16C2.89666 8.7752 8.78442 2.91473 15.9946 2.91473C23.2047 2.91473 29.0925 8.7752 29.0925 16V16.031V16.062C29.1555 17.4574 28.7147 18.5736 27.8331 19.1318ZM31.9892 16V15.969V15.938C31.9577 7.16279 24.779 0 15.9946 0C7.17867 0 0 7.16279 0 16C0 24.8062 7.17867 32 15.9946 32C20.0562 32 23.8974 30.4806 26.857 27.7209C27.4553 27.1628 27.4867 26.2636 26.92 25.6744C26.3848 25.0853 25.4717 25.0543 24.8735 25.5814C24.8735 25.5814 24.8735 25.5814 24.842 25.6124C22.4491 27.845 19.2376 29.1163 15.9316 29.1163C12.0589 29.1163 8.59551 27.4419 6.20262 24.7752L13.035 13.9845V18.9767C13.035 21.3643 13.9795 22.1395 14.7666 22.3566C15.5538 22.5736 16.7502 22.4186 18.0411 20.4031L21.7879 14.4186C21.9138 14.2326 22.0083 14.0465 22.1342 13.9225V16.9612C22.1342 19.1938 23.0473 20.9922 24.6216 21.8605C26.0384 22.6667 27.8331 22.5736 29.3129 21.6744C31.139 20.4961 32.1151 18.4496 31.9892 16Z"
		fill="#CAB8FF" />
</svg>