<svg width="20" height="20" viewBox="0 0 20 20" fill="none" xmlns="http://www.w3.org/2000/svg">
	<circle cx="10" cy="10" r="9.5" stroke="#C1FFD7" stroke-dasharray="2 2" />
	<path fill-rule="evenodd" clip-rule="evenodd"
		d="M7.68693 6.42862C7.68693 5.99983 8.03454 5.65222 8.46333 5.65222H8.62606C9.14473 5.65222 9.56519 6.07269 9.56519 6.59135V13.4087C9.56519 13.9274 9.14473 14.3479 8.62606 14.3479H8.46332C8.03453 14.3479 7.68693 14.0003 7.68693 13.5715C7.68693 13.1427 7.33314 12.7951 6.90435 12.7951C6.47556 12.7951 6.12177 12.4475 6.12177 12.0187C6.12177 11.5899 5.77417 11.2423 5.34538 11.2423H2.73914C2.18685 11.2423 1.73914 10.7946 1.73914 10.2423V9.75783C1.73914 9.20555 2.18685 8.75783 2.73914 8.75783H5.34537C5.77416 8.75783 6.12177 8.41022 6.12177 7.98143C6.12177 7.55263 6.47556 7.20503 6.90435 7.20503C7.33315 7.20503 7.68693 6.85742 7.68693 6.42862Z"
		fill="#C1EAF8" />
	<path fill-rule="evenodd" clip-rule="evenodd"
		d="M12.7479 13.5714C12.7479 14.0002 12.4003 14.3478 11.9715 14.3478L11.8088 14.3478C11.2901 14.3478 10.8696 13.9273 10.8696 13.4086L10.8696 6.59126C10.8696 6.07259 11.2901 5.65213 11.8088 5.65213L11.9715 5.65213C12.4003 5.65213 12.7479 5.99973 12.7479 6.42852C12.7479 6.85731 13.1017 7.20491 13.5305 7.20491C13.9593 7.20491 14.313 7.55251 14.313 7.9813C14.313 8.41009 14.6606 8.7577 15.0894 8.7577L17.6957 8.7577C18.248 8.7577 18.6957 9.20541 18.6957 9.7577L18.6957 10.2422C18.6957 10.7945 18.248 11.2422 17.6957 11.2422L15.0894 11.2422C14.6607 11.2422 14.313 11.5898 14.313 12.0186C14.313 12.4474 13.9593 12.795 13.5305 12.795C13.1017 12.795 12.7479 13.1426 12.7479 13.5714Z"
		fill="#C1EAF8" />
</svg>