<svg width="487" height="490" viewBox="0 0 487 490" fill="none" xmlns="http://www.w3.org/2000/svg">
	<g filter="url(#filter0_d_0_1)">
		<circle cx="238" cy="238" r="235" fill="#B5DEFF" />
		<circle cx="238" cy="238" r="236.5" stroke="#10151D" stroke-width="3" />
	</g>
	<path
		d="M272.867 147.401C271.617 147.822 270.502 148.594 269.663 149.638C268.505 151.078 267.967 152.919 268.166 154.756L269.642 168.345C269.842 170.182 270.763 171.865 272.203 173.022C273.644 174.18 275.485 174.719 277.322 174.519L304.5 171.567C306.337 171.367 308.019 170.446 309.177 169.006C310.335 167.565 310.874 165.724 310.674 163.887L309.198 150.298C308.998 148.461 308.077 146.779 306.637 145.621C305.593 144.781 304.338 144.268 303.027 144.124L302.581 140.018C302.147 136.018 300.141 132.355 297.006 129.834C293.87 127.313 289.862 126.141 285.863 126.576C281.863 127.01 278.2 129.016 275.679 132.151C273.158 135.286 271.986 139.295 272.421 143.294L272.867 147.401ZM294.163 140.932L294.592 144.876L281.267 146.324L280.839 142.38C280.647 140.613 281.165 138.842 282.278 137.457C283.392 136.072 285.01 135.186 286.777 134.994C288.544 134.802 290.315 135.32 291.7 136.433C293.085 137.547 293.971 139.165 294.163 140.932Z"
		fill="#C5B3FF" stroke="#10151D" stroke-width="3" />
	<path
		d="M237.276 268.679L237.76 307.353C238.168 339.965 208.083 366.791 170.558 367.26C133.033 367.73 102.286 341.666 101.877 309.054L101.393 270.38C101.801 302.992 132.51 325.92 170.035 325.45C207.559 324.981 237.684 301.291 237.276 268.679Z"
		fill="#10151D" />
	<path
		d="M236.622 285.537C236.741 295.049 234.238 303.861 229.733 311.445C218.779 329.981 195.93 341.976 169.381 342.308C142.831 342.641 119.689 331.222 108.275 312.965C103.581 305.497 100.858 296.75 100.739 287.238C100.331 254.626 130.417 227.8 167.941 227.33C186.756 227.095 203.772 233.468 216.239 243.975C228.603 254.588 236.418 269.231 236.622 285.537Z"
		fill="#FFE120" stroke="black" stroke-width="4" />
	<path
		d="M237.276 226.439L237.76 265.113C238.168 297.725 208.083 324.551 170.558 325.02C133.033 325.49 102.286 299.426 101.877 266.814L101.393 228.14C101.801 260.752 132.51 283.68 170.035 283.21C207.559 282.741 237.684 259.051 237.276 226.439Z"
		fill="#10151D" />
	<path
		d="M236.622 243.297C236.741 252.809 234.238 261.621 229.733 269.205C218.779 287.741 195.93 299.736 169.381 300.068C142.831 300.401 119.689 288.982 108.275 270.725C103.581 263.257 100.858 254.51 100.739 244.998C100.331 212.386 130.417 185.56 167.941 185.091C186.756 184.855 203.772 191.228 216.239 201.735C228.603 212.348 236.418 226.991 236.622 243.297Z"
		fill="#FFE120" stroke="black" stroke-width="4" />
	<path
		d="M237.276 184.199L237.76 222.873C238.168 255.485 208.083 282.311 170.558 282.781C133.033 283.25 102.286 257.186 101.877 224.574L101.393 185.9C101.801 218.512 132.51 241.44 170.035 240.97C207.559 240.501 237.684 216.811 237.276 184.199Z"
		fill="#10151D" />
	<path
		d="M236.622 201.057C236.741 210.569 234.238 219.381 229.733 226.965C218.779 245.501 195.93 257.496 169.381 257.828C142.831 258.161 119.689 246.742 108.275 228.485C103.581 221.017 100.858 212.27 100.739 202.758C100.331 170.146 130.417 143.32 167.941 142.851C186.756 142.615 203.772 148.988 216.239 159.495C228.603 170.108 236.418 184.751 236.622 201.057Z"
		fill="#FFE120" stroke="black" stroke-width="4" />
	<path
		d="M184.772 194.234C183.231 193.061 181.361 192.399 179.424 192.34C180.614 191.31 181.488 189.963 181.944 188.457C182.411 186.932 182.448 185.308 182.052 183.763C181.765 182.492 181.164 181.313 180.304 180.333C179.444 179.353 178.353 178.604 177.129 178.153C174.853 177.366 172.413 177.176 170.043 177.601L169.426 175.135L165.656 176.095L166.231 178.364L162.443 179.3L161.868 177.031L158.079 177.968L158.673 180.26L150.457 182.295L158.938 216.14L167.131 214.124L167.734 216.524L171.504 215.564L170.901 213.164L174.689 212.227L175.292 214.628L179.062 213.668L178.45 211.159C181.292 210.435 183.882 208.948 185.94 206.859C186.833 205.834 187.451 204.599 187.738 203.271C188.025 201.942 187.97 200.562 187.58 199.261C187.24 197.316 186.251 195.544 184.772 194.234ZM159.791 186.206L167.589 184.273C169.092 183.789 170.702 183.75 172.225 184.16C172.787 184.378 173.281 184.741 173.655 185.213C174.03 185.684 174.273 186.246 174.359 186.842C174.551 187.417 174.583 188.033 174.452 188.625C174.32 189.217 174.029 189.762 173.611 190.201C172.476 191.311 171.034 192.055 169.471 192.338L161.673 194.271L159.791 186.206ZM178.862 203.805C177.624 204.932 176.09 205.684 174.441 205.974L165.317 208.27L163.192 199.899L172.358 197.608C176.499 196.584 178.943 197.483 179.653 200.259C179.875 200.874 179.925 201.537 179.799 202.178C179.673 202.82 179.375 203.414 178.937 203.899L178.862 203.805Z"
		fill="#4C4203" />
	<path
		d="M356.296 251.799L356.314 252.127C356.412 253.111 356.71 254.056 357.186 254.898C357.713 255.83 358.441 256.609 359.306 257.177C360.171 257.745 361.151 258.089 362.169 258.183C363.187 258.278 364.221 258.122 365.187 257.722L365.188 257.722C370.4 255.569 375.239 257.815 377.76 261.57C380.271 265.309 380.61 270.706 376.969 275.002L376.968 275.003C376.267 275.829 375.757 276.818 375.486 277.89C375.214 278.961 375.189 280.079 375.412 281.15C375.634 282.221 376.095 283.211 376.752 284.042C377.408 284.872 378.24 285.52 379.178 285.939C384.279 288.223 386.07 293.334 385.286 297.797C384.503 302.258 381.079 306.455 375.505 306.868C374.481 306.945 373.478 307.271 372.579 307.828C371.679 308.386 370.908 309.159 370.335 310.091C369.761 311.022 369.403 312.081 369.293 313.181C369.183 314.281 369.325 315.384 369.702 316.4C371.662 321.679 369.505 326.637 365.87 329.298C362.222 331.97 356.907 332.434 352.74 328.634C351.967 327.93 351.049 327.432 350.059 327.175C349.07 326.918 348.031 326.907 347.024 327.146C346.018 327.386 345.068 327.87 344.255 328.567C343.442 329.264 342.79 330.153 342.358 331.165C337.868 341.719 322.728 339.055 322.095 327.609L322.095 327.608C322.035 326.508 321.725 325.449 321.198 324.516C320.672 323.584 319.943 322.805 319.078 322.237C318.214 321.669 317.233 321.325 316.215 321.231C315.197 321.136 314.163 321.292 313.198 321.692L313.196 321.692C307.984 323.845 303.145 321.599 300.624 317.844C298.113 314.105 297.774 308.708 301.415 304.412L301.416 304.411C302.117 303.585 302.627 302.596 302.899 301.524C303.17 300.453 303.195 299.335 302.973 298.264C302.75 297.192 302.289 296.203 301.632 295.372C300.976 294.542 300.144 293.894 299.207 293.475C294.105 291.191 292.315 286.079 293.098 281.617C293.881 277.155 297.306 272.959 302.879 272.546L356.296 251.799ZM356.296 251.799C355.655 240.357 340.523 237.7 336.023 248.24L336.022 248.242M356.296 251.799L336.022 248.242M336.022 248.242C335.591 249.256 334.94 250.146 334.127 250.844C333.315 251.541 332.365 252.026 331.359 252.266C330.353 252.506 329.314 252.495 328.325 252.238C327.335 251.982 326.417 251.484 325.645 250.78C321.477 246.98 316.163 247.444 312.514 250.116C308.88 252.777 306.722 257.735 308.682 263.014L308.682 263.014M336.022 248.242L308.682 263.014M308.682 263.014C310.332 267.456 307.278 272.218 302.88 272.546L308.682 263.014ZM347.572 302.335C344.33 304.708 340.352 305.647 336.512 304.972C332.673 304.298 329.252 302.061 327.013 298.725C324.771 295.387 323.9 291.222 324.615 287.148C325.33 283.074 327.568 279.455 330.813 277.079C334.054 274.706 338.032 273.767 341.872 274.441C345.712 275.116 349.132 277.353 351.372 280.689C353.613 284.027 354.484 288.192 353.769 292.266C353.054 296.34 350.816 299.959 347.572 302.335Z"
		fill="#C5B3FF" stroke="#10151D" stroke-width="4" />
	<defs>
		<filter id="filter0_d_0_1" x="0" y="0" width="487" height="490" filterUnits="userSpaceOnUse"
			color-interpolation-filters="sRGB">
			<feFlood flood-opacity="0" result="BackgroundImageFix" />
			<feColorMatrix in="SourceAlpha" type="matrix" values="0 0 0 0 0 0 0 0 0 0 0 0 0 0 0 0 0 0 127 0"
				result="hardAlpha" />
			<feOffset dx="11" dy="14" />
			<feComposite in2="hardAlpha" operator="out" />
			<feColorMatrix type="matrix" values="0 0 0 0 0.0627451 0 0 0 0 0.0823529 0 0 0 0 0.113725 0 0 0 1 0" />
			<feBlend mode="normal" in2="BackgroundImageFix" result="effect1_dropShadow_0_1" />
			<feBlend mode="normal" in="SourceGraphic" in2="effect1_dropShadow_0_1" result="shape" />
		</filter>
	</defs>
</svg>