<svg width="1440" height="828" viewBox="0 0 1440 828" fill="none" xmlns="http://www.w3.org/2000/svg">
	<path
		d="M1403.66 799.188L1462 828V0H-21V791.99L-5.79065 803.748C12.0381 817.53 37.3981 815.615 52.9543 799.311L53.4786 798.761C65.3707 786.298 83.4425 781.92 99.7198 787.561L186.803 817.738C192.996 819.884 199.59 820.62 206.104 819.891L334 805.575L465.38 784.823C472.993 783.621 480.788 784.439 487.985 787.196L586.899 825.088C591.924 827.013 597.259 828 602.639 828H676.881C680.128 828 683.365 827.641 686.534 826.928L781.5 805.575L852.949 788.034C865.938 784.845 879.672 787.737 890.272 795.893L914.272 814.36C925.412 822.931 939.977 825.665 953.467 821.715L1040.46 796.246C1049.88 793.488 1059.95 793.959 1069.08 797.583L1120.17 817.888C1125.34 819.943 1130.86 820.998 1136.42 820.998H1269.49C1273.15 820.998 1276.79 820.542 1280.34 819.641L1373.34 795.996C1383.5 793.411 1394.26 794.543 1403.66 799.188Z"
		fill="#C5B3FF" />
	<path opacity="0.3" fill-rule="evenodd" clip-rule="evenodd"
		d="M1183.71 181.009C1180.95 181.122 1178.8 183.45 1178.92 186.209C1179.03 188.968 1181.36 191.113 1184.12 191.001L1231.24 189.077L1201.37 228.624C1200.48 229.795 1200.19 231.231 1200.44 232.569C1200.51 232.894 1200.6 233.208 1200.72 233.506C1201.05 234.321 1201.59 235.059 1202.34 235.627C1203.32 236.363 1204.47 236.688 1205.61 236.631L1252.69 234.71L1222.81 274.256C1221.15 276.459 1221.59 279.595 1223.79 281.26C1225.99 282.924 1229.13 282.487 1230.79 280.284L1266.41 233.141C1269.21 229.434 1266.44 224.14 1261.8 224.33L1215.72 226.21L1244.96 187.508C1247.76 183.802 1244.99 178.508 1240.35 178.697L1183.71 181.009Z"
		fill="#F7F6FE" />
</svg>