<svg width="243" height="182" viewBox="0 0 243 182" fill="none" xmlns="http://www.w3.org/2000/svg">
	<path fill-rule="evenodd" clip-rule="evenodd"
		d="M99.582 163.901V181.309H94.0384V175.081H86.4198V181.309H81V163.932H86.4198V169.849H94.0384V163.901H99.582ZM157.651 163.901V168.853H143.188V176.358H157.558V181.309H137.768V163.932H157.558L157.651 163.901ZM229.099 163.901L236.656 171.406V163.901H242.044V181.309H236.594L229.006 173.586V181.309H223.462V163.901H229.099ZM185.369 163.901V169.849L180.104 175.081H185.369V181.309H179.609V175.081H171.154V181.309H165.486V163.932H171.154V169.849H179.609V163.901H185.369ZM127.455 163.901H128.384V181.309H123.119V177.541H115.439V181.309H110.05V163.932H127.455V163.901ZM212.871 163.901V168.853H199.925V170.161H212.963V175.081H199.925V176.389H212.963V181.309H194.381V163.932H212.963L212.871 163.901ZM123.119 168.853H115.439V172.403H123.119V168.853ZM90.291 0.69043V72.6577H99.582V0.69043H108.873V72.6577H232.753V62.2254H119.279V0.69043H128.57V52.7273H232.753V43.385H136.436V0.69043H145.727V33.9181H175.985V0.69043H185.276V33.9181H194.567V0.69043H203.858V33.9181H214.419V0.69043H223.71V33.9181H233.001V0.69043H242.292V153.282H232.753V82.3114H222.254V153.282H212.963V82.3114H99.582H90.291V91.6538H203.765V153.282H194.474V101.183H90.291V110.525H186.608V153.282H177.317V119.992H146.997V153.282H137.706V119.992H128.415V153.282H119.124V119.992H108.873V153.282H99.582V119.992H90.291V153.282H81V0.69043H90.291Z"
		fill="#4ADDA5" />
	<circle cx="23.5" cy="51.5" r="22" fill="#FFE120" stroke="black" stroke-width="3" />
	<path fill-rule="evenodd" clip-rule="evenodd"
		d="M25.8236 37.5782C26.1452 37.6793 26.4262 37.8804 26.6256 38.1523C26.8251 38.4241 26.9326 38.7524 26.9326 39.0896V47.0109H33.2697C33.5595 47.0108 33.8437 47.0902 34.0916 47.2404C34.3394 47.3906 34.5413 47.6059 34.6752 47.8629C34.8092 48.1198 34.8701 48.4086 34.8513 48.6978C34.8326 48.987 34.7348 49.2655 34.5688 49.503L23.4789 65.3457C23.2859 65.6222 23.0097 65.8299 22.6905 65.9386C22.3712 66.0473 22.0257 66.0513 21.704 65.9501C21.3824 65.8488 21.1014 65.6475 20.9021 65.3756C20.7027 65.1036 20.5953 64.7751 20.5955 64.4379V56.5165H14.2584C13.9686 56.5167 13.6844 56.4373 13.4365 56.2871C13.1887 56.1369 12.9868 55.9216 12.8529 55.6646C12.7189 55.4076 12.658 55.1189 12.6768 54.8297C12.6956 54.5405 12.7933 54.262 12.9593 54.0245L24.0492 38.1818C24.2425 37.9058 24.5188 37.6986 24.8379 37.5903C25.157 37.4821 25.5023 37.4784 25.8236 37.5798V37.5782Z"
		fill="black" />
</svg>