<svg width="1440" height="828" viewBox="0 0 1440 828" fill="none" xmlns="http://www.w3.org/2000/svg">
	<path
		d="M37.3359 799.188L-21 828V0H1462V791.99L1446.79 803.748C1428.96 817.53 1403.6 815.615 1388.05 799.311L1387.52 798.761C1375.63 786.298 1357.56 781.92 1341.28 787.561L1254.2 817.738C1248 819.884 1241.41 820.62 1234.9 819.891L1107 805.575L975.62 784.823C968.007 783.621 960.212 784.439 953.015 787.196L854.101 825.088C849.076 827.013 843.741 828 838.361 828H764.119C760.872 828 757.635 827.641 754.466 826.928L659.5 805.575L588.051 788.034C575.062 784.845 561.328 787.737 550.728 795.893L526.728 814.36C515.588 822.931 501.023 825.665 487.533 821.715L400.536 796.246C391.116 793.488 381.046 793.959 371.925 797.583L320.827 817.888C315.656 819.943 310.142 820.998 304.578 820.998H171.506C167.85 820.998 164.207 820.542 160.664 819.641L67.6625 795.996C57.4963 793.411 46.741 794.543 37.3359 799.188Z"
		fill="#FAFAFA" />
	<path opacity="0.3" d="M659.925 123.086L635 160.12M683.32 134.347L662.409 178.566" stroke="#C5B3FF" stroke-width="10"
		stroke-linecap="round" stroke-linejoin="round" />
</svg>