<svg width="1440" height="100" xmlns="http://www.w3.org/2000/svg" fill="none">
	<g>
		<title>Layer 1</title>
		<path transform="rotate(180 720 -320.001)" stroke="null" id="svg_1" fill="#C5B3FF"
			d="m34.5973,-700.29383l-56.0973,-27.7061l0,827.9999l1483,0l0,-791.9903l-17.74,-13.447c-16.91,-12.8212 -40.78,-10.7881 -55.28,4.7093c-12.46,13.3203 -32.17,16.9211 -48.54,8.868l-88.66,-43.62206c-9.83,-4.83715 -21.11,-5.83203 -31.64,-2.78997l-113.14,32.69693l-135.673,21.4298c-4.85,0.7661 -9.795,0.7149 -14.629,-0.1516l-113.628,-20.3693c-3.368,-0.6038 -6.655,-1.5987 -9.793,-2.9643l-64.34,-27.99896c-10.833,-4.71441 -23.108,-4.87396 -34.06,-0.44274l-72.441,29.3093c-1.955,0.7909 -3.964,1.4402 -6.012,1.943l-68.373,16.7863c-12.989,3.1889 -26.723,0.297 -37.322,-7.859l-24.001,-18.4671c-11.14,-8.5715 -25.705,-11.3049 -39.195,-7.3556l-86.997,25.4695c-9.42,2.7576 -19.49,2.2868 -28.611,-1.3375l-52.013,-20.6682c-4.576,-1.8181 -9.424,-2.8554 -14.343,-3.0687l-145.38,-6.303c-5.737,-0.2487 -11.467,0.6279 -16.868,2.5805l-73.7778,26.6765c-11.2656,4.0734 -23.7051,3.3772 -34.4459,-1.9276z" />
	</g>
</svg>