<svg width="541" height="548" viewBox="0 0 541 548" fill="none" xmlns="http://www.w3.org/2000/svg">
	<g filter="url(#filter0_d_0_1)">
		<circle cx="238" cy="296" r="235" fill="#B5DEFF" />
		<circle cx="238" cy="296" r="236.5" stroke="#10151D" stroke-width="3" />
	</g>
	<path
		d="M272.867 205.401C271.617 205.822 270.502 206.594 269.663 207.638C268.505 209.078 267.967 210.919 268.166 212.756L269.642 226.345C269.842 228.182 270.763 229.865 272.203 231.022C273.644 232.18 275.485 232.719 277.322 232.519L304.5 229.567C306.337 229.367 308.019 228.446 309.177 227.006C310.335 225.565 310.874 223.724 310.674 221.887L309.198 208.298C308.998 206.461 308.077 204.779 306.637 203.621C305.593 202.781 304.338 202.268 303.027 202.124L302.581 198.018C302.147 194.018 300.141 190.355 297.006 187.834C293.87 185.313 289.862 184.141 285.863 184.576C281.863 185.01 278.2 187.016 275.679 190.151C273.158 193.286 271.986 197.295 272.421 201.294L272.867 205.401ZM294.163 198.932L294.592 202.876L281.267 204.324L280.839 200.38C280.647 198.613 281.165 196.842 282.278 195.457C283.392 194.072 285.01 193.186 286.777 192.994C288.544 192.802 290.315 193.32 291.7 194.433C293.085 195.547 293.971 197.165 294.163 198.932Z"
		fill="#C5B3FF" stroke="#10151D" stroke-width="3" />
	<path
		d="M237.276 326.679L237.76 365.353C238.168 397.965 208.083 424.791 170.558 425.26C133.033 425.73 102.286 399.666 101.877 367.054L101.393 328.38C101.801 360.992 132.51 383.92 170.035 383.45C207.559 382.981 237.684 359.291 237.276 326.679Z"
		fill="#10151D" />
	<path
		d="M236.622 343.537C236.741 353.049 234.238 361.861 229.733 369.445C218.779 387.981 195.93 399.976 169.381 400.308C142.831 400.641 119.689 389.222 108.275 370.965C103.581 363.497 100.858 354.75 100.739 345.238C100.331 312.626 130.417 285.8 167.941 285.33C186.756 285.095 203.772 291.468 216.239 301.975C228.603 312.588 236.418 327.231 236.622 343.537Z"
		fill="#FFE120" stroke="black" stroke-width="4" />
	<path
		d="M237.276 284.439L237.76 323.113C238.168 355.725 208.083 382.551 170.558 383.02C133.033 383.49 102.286 357.426 101.877 324.814L101.393 286.14C101.801 318.752 132.51 341.68 170.035 341.21C207.559 340.741 237.684 317.051 237.276 284.439Z"
		fill="#10151D" />
	<path
		d="M236.622 301.297C236.741 310.809 234.238 319.621 229.733 327.205C218.779 345.741 195.93 357.736 169.381 358.068C142.831 358.401 119.689 346.982 108.275 328.725C103.581 321.257 100.858 312.51 100.739 302.998C100.331 270.386 130.417 243.56 167.941 243.091C186.756 242.855 203.772 249.228 216.239 259.735C228.603 270.348 236.418 284.991 236.622 301.297Z"
		fill="#FFE120" stroke="black" stroke-width="4" />
	<path
		d="M237.276 242.199L237.76 280.873C238.168 313.485 208.083 340.311 170.558 340.781C133.033 341.25 102.286 315.186 101.877 282.574L101.393 243.9C101.801 276.512 132.51 299.44 170.035 298.97C207.559 298.501 237.684 274.811 237.276 242.199Z"
		fill="#10151D" />
	<path
		d="M236.622 259.057C236.741 268.569 234.238 277.381 229.733 284.965C218.779 303.501 195.93 315.496 169.381 315.828C142.831 316.161 119.689 304.742 108.275 286.485C103.581 279.017 100.858 270.27 100.739 260.758C100.331 228.146 130.417 201.32 167.941 200.851C186.756 200.615 203.772 206.988 216.239 217.495C228.603 228.108 236.418 242.751 236.622 259.057Z"
		fill="#FFE120" stroke="black" stroke-width="4" />
	<path
		d="M184.772 252.234C183.231 251.061 181.361 250.399 179.424 250.34C180.614 249.31 181.488 247.963 181.944 246.457C182.411 244.932 182.448 243.308 182.052 241.763C181.765 240.492 181.164 239.313 180.304 238.333C179.444 237.353 178.353 236.604 177.129 236.153C174.853 235.366 172.413 235.176 170.043 235.601L169.426 233.135L165.656 234.095L166.231 236.364L162.443 237.3L161.868 235.031L158.079 235.968L158.673 238.26L150.457 240.295L158.938 274.14L167.131 272.124L167.734 274.524L171.504 273.564L170.901 271.164L174.689 270.227L175.292 272.628L179.062 271.668L178.45 269.159C181.292 268.435 183.882 266.948 185.94 264.859C186.833 263.834 187.451 262.599 187.738 261.271C188.025 259.942 187.97 258.562 187.58 257.261C187.24 255.316 186.251 253.544 184.772 252.234V252.234ZM159.791 244.206L167.589 242.273C169.092 241.789 170.702 241.75 172.225 242.16C172.787 242.378 173.281 242.741 173.655 243.213C174.03 243.684 174.273 244.246 174.359 244.842C174.551 245.417 174.583 246.033 174.452 246.625C174.32 247.217 174.029 247.762 173.611 248.201C172.476 249.311 171.034 250.055 169.471 250.338L161.673 252.271L159.791 244.206ZM178.862 261.805C177.624 262.932 176.09 263.684 174.441 263.974L165.317 266.27L163.192 257.899L172.358 255.608C176.499 254.584 178.943 255.483 179.653 258.259C179.875 258.874 179.925 259.537 179.799 260.178C179.673 260.82 179.375 261.414 178.937 261.899L178.862 261.805Z"
		fill="#4C4203" />
	<path
		d="M356.296 309.799L356.314 310.127C356.412 311.111 356.71 312.056 357.186 312.898C357.713 313.83 358.441 314.609 359.306 315.177C360.171 315.745 361.151 316.089 362.169 316.183C363.187 316.278 364.221 316.122 365.187 315.722L365.188 315.722C370.4 313.569 375.239 315.815 377.76 319.57C380.271 323.309 380.61 328.706 376.969 333.002L376.968 333.003C376.267 333.829 375.757 334.818 375.486 335.89C375.214 336.961 375.189 338.079 375.412 339.15C375.634 340.221 376.095 341.211 376.752 342.042C377.408 342.872 378.24 343.52 379.178 343.939C384.279 346.223 386.07 351.334 385.286 355.797C384.503 360.258 381.079 364.455 375.505 364.868C374.481 364.945 373.478 365.271 372.579 365.828C371.679 366.386 370.908 367.159 370.335 368.091C369.761 369.022 369.403 370.081 369.293 371.181C369.183 372.281 369.325 373.384 369.702 374.4C371.662 379.679 369.505 384.637 365.87 387.298C362.222 389.97 356.907 390.434 352.74 386.634C351.967 385.93 351.049 385.432 350.059 385.175C349.07 384.918 348.031 384.907 347.024 385.146C346.018 385.386 345.068 385.87 344.255 386.567C343.442 387.264 342.79 388.153 342.358 389.165C337.868 399.719 322.728 397.055 322.095 385.609L322.095 385.608C322.035 384.508 321.725 383.449 321.198 382.516C320.672 381.584 319.943 380.805 319.078 380.237C318.214 379.669 317.233 379.325 316.215 379.231C315.197 379.136 314.163 379.292 313.198 379.692L313.196 379.692C307.984 381.845 303.145 379.599 300.624 375.844C298.113 372.105 297.774 366.708 301.415 362.412L301.416 362.411C302.117 361.585 302.627 360.596 302.899 359.524C303.17 358.453 303.195 357.335 302.973 356.264C302.75 355.192 302.289 354.203 301.632 353.372C300.976 352.542 300.144 351.894 299.207 351.475C294.105 349.191 292.315 344.079 293.098 339.617C293.881 335.155 297.306 330.959 302.879 330.546L356.296 309.799ZM356.296 309.799C355.655 298.357 340.523 295.7 336.023 306.24L336.022 306.242M356.296 309.799L336.022 306.242M336.022 306.242C335.591 307.256 334.94 308.146 334.127 308.844C333.315 309.541 332.365 310.026 331.359 310.266C330.353 310.506 329.314 310.495 328.325 310.238C327.335 309.982 326.417 309.484 325.645 308.78C321.477 304.98 316.163 305.444 312.514 308.116C308.88 310.777 306.722 315.735 308.682 321.014L308.682 321.014M336.022 306.242L308.682 321.014M308.682 321.014C310.332 325.456 307.278 330.218 302.88 330.546L308.682 321.014ZM347.572 360.335C344.33 362.708 340.352 363.647 336.512 362.972C332.673 362.298 329.252 360.061 327.013 356.725C324.771 353.387 323.9 349.222 324.615 345.148C325.33 341.074 327.568 337.455 330.813 335.079C334.054 332.706 338.032 331.767 341.872 332.441C345.712 333.116 349.132 335.353 351.372 338.689C353.613 342.027 354.484 346.192 353.769 350.266C353.054 354.34 350.816 357.959 347.572 360.335Z"
		fill="#C5B3FF" stroke="#10151D" stroke-width="4" />
	<path opacity="0.3" d="M511.925 5.08614L487 42.1199M535.32 16.3474L514.409 60.5665" stroke="#C5B3FF" stroke-width="10"
		stroke-linecap="round" stroke-linejoin="round" />
	<defs>
		<filter id="filter0_d_0_1" x="0" y="58" width="487" height="490" filterUnits="userSpaceOnUse"
			color-interpolation-filters="sRGB">
			<feFlood flood-opacity="0" result="BackgroundImageFix" />
			<feColorMatrix in="SourceAlpha" type="matrix" values="0 0 0 0 0 0 0 0 0 0 0 0 0 0 0 0 0 0 127 0"
				result="hardAlpha" />
			<feOffset dx="11" dy="14" />
			<feComposite in2="hardAlpha" operator="out" />
			<feColorMatrix type="matrix" values="0 0 0 0 0.0627451 0 0 0 0 0.0823529 0 0 0 0 0.113725 0 0 0 1 0" />
			<feBlend mode="normal" in2="BackgroundImageFix" result="effect1_dropShadow_0_1" />
			<feBlend mode="normal" in="SourceGraphic" in2="effect1_dropShadow_0_1" result="shape" />
		</filter>
	</defs>
</svg>