<svg width="417" height="481" viewBox="0 0 417 481" fill="none" xmlns="http://www.w3.org/2000/svg">
	<g filter="url(#filter0_d_0_1)">
		<path
			d="M62.9077 10.3218C63.8162 4.45727 68.8749 0.13755 74.8094 0.158854L384.321 1.26999C391.389 1.29536 396.904 7.39223 396.222 14.4267L354.499 445.24C353.86 451.837 347.995 456.666 341.398 456.028L11.647 424.092C4.78234 423.427 -0.110536 417.126 0.94526 410.311L62.9077 10.3218Z"
			fill="#FAFAFA" />
		<path
			d="M74.8022 2.15884L384.314 3.26997C390.204 3.29112 394.799 8.37185 394.232 14.2339L352.508 445.047C351.976 450.545 347.088 454.569 341.591 454.037L11.8398 422.101C6.11925 421.547 2.04186 416.297 2.92168 410.617L64.8842 10.628C65.6412 5.74086 69.8568 2.14109 74.8022 2.15884Z"
			stroke="#10151D" stroke-width="4" />
	</g>
	<path opacity="0.7"
		d="M95.9625 69.3948C95.856 69.3889 95.7672 69.3519 95.6962 69.2839C95.6364 69.2058 95.6095 69.1135 95.6154 69.007L96.1932 58.575C96.1997 58.4579 96.2366 58.3691 96.3041 58.3087C96.3827 58.2383 96.4753 58.206 96.5818 58.2119L100.208 58.4128C101.816 58.5019 102.957 58.9283 103.631 59.692C104.305 60.4451 104.618 61.5468 104.569 62.997C104.563 63.3064 104.545 63.7221 104.516 64.2439C104.488 64.7658 104.459 65.1862 104.431 65.5051C104.343 66.5151 104.126 67.3311 103.782 67.953C103.449 68.5649 102.949 69.0072 102.283 69.2801C101.616 69.553 100.744 69.6597 99.6688 69.6001L95.9625 69.3948ZM99.6641 68.2377C100.399 68.2784 100.985 68.2094 101.422 68.0306C101.87 67.8525 102.202 67.5504 102.418 67.1243C102.645 66.6882 102.79 66.098 102.853 65.3536C102.909 64.7158 102.942 64.317 102.951 64.1572C102.96 63.9868 102.971 63.5922 102.984 62.9733C103.021 61.9177 102.814 61.137 102.361 60.6312C101.909 60.1148 101.14 59.8265 100.053 59.7663L97.7048 59.6362L97.2359 68.1032L99.6641 68.2377ZM109.916 70.3278C108.819 70.2671 107.958 69.8829 107.335 69.1754C106.723 68.4578 106.418 67.5114 106.419 66.3364L106.433 65.7923L106.478 65.266C106.616 64.1199 107.029 63.224 107.717 62.5784C108.415 61.9333 109.302 61.6406 110.377 61.7002C111.559 61.7656 112.454 62.1944 113.062 62.9866C113.671 63.7681 113.939 64.7979 113.869 66.0759L113.854 66.3475C113.848 66.454 113.805 66.5425 113.727 66.6129C113.659 66.6733 113.572 66.7005 113.466 66.6946L107.938 66.3885L107.93 66.5322C107.924 67.2263 108.099 67.8289 108.455 68.34C108.823 68.8411 109.326 69.1094 109.965 69.1447C110.455 69.1719 110.86 69.0981 111.179 68.9235C111.51 68.7389 111.756 68.5442 111.917 68.3394C112.019 68.2169 112.093 68.1462 112.137 68.1273C112.192 68.0983 112.283 68.0873 112.411 68.0944L113.194 68.1377C113.289 68.1431 113.368 68.1741 113.429 68.2309C113.49 68.2877 113.518 68.364 113.512 68.4599C113.499 68.6942 113.335 68.9681 113.018 69.2818C112.712 69.596 112.286 69.8609 111.74 70.0763C111.205 70.2817 110.597 70.3656 109.916 70.3278ZM112.377 65.5286L112.379 65.4806C112.42 64.7458 112.251 64.1381 111.871 63.6578C111.503 63.1673 110.984 62.9035 110.313 62.8664C109.642 62.8292 109.096 63.034 108.676 63.4808C108.267 63.9175 108.043 64.5033 108.002 65.2382L107.999 65.2861L112.377 65.5286ZM115.956 73.5468C115.849 73.5409 115.761 73.4986 115.69 73.4199C115.63 73.3525 115.603 73.2655 115.609 73.159L116.196 62.5512C116.202 62.4447 116.239 62.3613 116.306 62.3009C116.385 62.2305 116.478 62.1983 116.584 62.2042L117.319 62.2449C117.425 62.2507 117.509 62.2927 117.568 62.3708C117.639 62.4389 117.672 62.5261 117.666 62.6326L117.627 63.3356C118.269 62.5485 119.165 62.1868 120.315 62.2505C121.433 62.3125 122.25 62.7102 122.765 63.4438C123.291 64.178 123.544 65.1001 123.525 66.2101C123.529 66.3279 123.525 66.5092 123.511 66.7542C123.497 66.9991 123.482 67.1799 123.465 67.2965C123.362 68.3911 123.008 69.2795 122.404 69.9619C121.801 70.6335 120.945 70.9387 119.837 70.8773C118.73 70.816 117.889 70.3688 117.316 69.5358L117.11 73.2422C117.105 73.3487 117.068 73.4321 117 73.4925C116.932 73.5635 116.845 73.596 116.739 73.5901L115.956 73.5468ZM119.574 69.5647C120.33 69.6066 120.891 69.4027 121.258 68.9529C121.635 68.5038 121.861 67.8967 121.936 67.1316C121.952 67.0257 121.966 66.8716 121.977 66.6692C122.089 64.6563 121.399 63.6086 119.908 63.526C119.173 63.4853 118.606 63.6996 118.206 64.1688C117.817 64.6281 117.588 65.1923 117.519 65.8615L117.47 66.4676L117.451 67.0916C117.438 67.7211 117.61 68.2808 117.967 68.7707C118.325 69.2605 118.86 69.5252 119.574 69.5647ZM128.851 71.3765C127.679 71.3116 126.787 70.931 126.174 70.2347C125.571 69.539 125.279 68.6415 125.297 67.5422L125.32 66.8543L125.374 66.1683C125.476 65.0843 125.871 64.2301 126.557 63.6058C127.244 62.9708 128.168 62.6855 129.329 62.7497C130.49 62.814 131.376 63.1997 131.989 63.9066C132.602 64.6029 132.9 65.4954 132.882 66.5841C132.886 66.7019 132.879 66.9311 132.86 67.2719C132.841 67.6128 132.823 67.8414 132.806 67.958C132.703 69.0526 132.308 69.9121 131.622 70.5365C130.946 71.1614 130.022 71.4414 128.851 71.3765ZM128.919 70.1464C129.59 70.1836 130.129 69.9998 130.536 69.595C130.954 69.1908 131.201 68.5902 131.277 67.7932C131.293 67.6873 131.31 67.4852 131.326 67.187C131.343 66.8888 131.349 66.6861 131.344 66.579C131.356 65.7785 131.177 65.1543 130.807 64.7065C130.447 64.2592 129.931 64.017 129.261 63.9799C128.59 63.9427 128.045 64.1262 127.628 64.5304C127.21 64.9346 126.968 65.5355 126.903 66.3331L126.853 66.9393L126.836 67.5472C126.813 68.3472 126.986 68.9711 127.357 69.4189C127.727 69.8667 128.248 70.1092 128.919 70.1464ZM137.697 71.8664C136.951 71.8252 136.329 71.6732 135.831 71.4106C135.344 71.1379 134.981 70.84 134.743 70.517C134.515 70.1946 134.407 69.9322 134.418 69.7299C134.424 69.6234 134.466 69.5455 134.543 69.4964C134.632 69.4372 134.719 69.41 134.804 69.4147L135.523 69.4545C135.629 69.4604 135.722 69.519 135.802 69.6302C136.041 69.9426 136.305 70.1922 136.593 70.3791C136.882 70.5661 137.277 70.6734 137.777 70.7011C138.331 70.7318 138.784 70.6501 139.137 70.4559C139.501 70.2517 139.693 69.9579 139.715 69.5745C139.729 69.3189 139.666 69.1071 139.525 68.9391C139.396 68.761 139.159 68.6037 138.814 68.467C138.481 68.3204 137.977 68.1536 137.304 67.9667C136.388 67.7131 135.744 67.3836 135.372 66.9784C135.009 66.5737 134.845 66.0679 134.879 65.4608C134.901 65.0561 135.04 64.6792 135.294 64.33C135.559 63.9708 135.927 63.6921 136.398 63.4938C136.879 63.2854 137.445 63.1993 138.095 63.2352C138.776 63.273 139.351 63.417 139.817 63.6672C140.284 63.9174 140.626 64.2034 140.844 64.5252C141.072 64.837 141.181 65.0941 141.169 65.2964C141.164 65.3923 141.122 65.4701 141.044 65.5299C140.977 65.5902 140.895 65.6178 140.799 65.6124L140.128 65.5753C140.001 65.5682 139.897 65.5091 139.818 65.3978C139.659 65.186 139.518 65.0233 139.396 64.9098C139.285 64.7861 139.115 64.6752 138.886 64.577C138.667 64.4794 138.382 64.4209 138.03 64.4015C137.519 64.3731 137.119 64.4631 136.829 64.6715C136.541 64.8691 136.387 65.1437 136.367 65.4952C136.355 65.7188 136.403 65.9138 136.511 66.08C136.62 66.2356 136.836 66.3864 137.159 66.5325C137.493 66.6792 137.975 66.8395 138.607 67.0133C139.607 67.2824 140.303 67.6307 140.696 68.0585C141.1 68.4761 141.285 68.9938 141.251 69.6115C141.226 70.0695 141.069 70.4775 140.783 70.8355C140.496 71.1935 140.085 71.4646 139.552 71.6487C139.029 71.8334 138.41 71.906 137.697 71.8664ZM143.959 62.1659C143.853 62.16 143.764 62.123 143.693 62.055C143.633 61.9769 143.606 61.8846 143.612 61.7781L143.66 60.9154C143.666 60.8089 143.703 60.7202 143.771 60.6492C143.849 60.5787 143.942 60.5465 144.048 60.5524L145.055 60.6081C145.161 60.614 145.25 60.6563 145.32 60.735C145.391 60.8137 145.423 60.9063 145.417 61.0128L145.369 61.8754C145.363 61.9819 145.321 62.0704 145.242 62.1408C145.164 62.2006 145.072 62.2275 144.966 62.2216L143.959 62.1659ZM143.541 72.0299C143.434 72.024 143.346 71.987 143.275 71.919C143.215 71.8409 143.188 71.7486 143.194 71.6421L143.613 64.0697C143.619 63.9632 143.656 63.8797 143.723 63.8194C143.802 63.749 143.895 63.7167 144.001 63.7226L144.768 63.7651C144.874 63.771 144.958 63.813 145.017 63.8911C145.088 63.9591 145.121 64.0464 145.115 64.1529L144.696 71.7253C144.69 71.8318 144.647 71.9202 144.569 71.9906C144.501 72.051 144.414 72.0782 144.308 72.0723L143.541 72.0299ZM150.485 72.4145C148.803 72.3213 148.013 71.3374 148.117 69.463L148.35 65.2454L147.104 65.1764C146.998 65.1705 146.909 65.1336 146.838 65.0655C146.778 64.9874 146.751 64.8952 146.757 64.7886L146.787 64.2455C146.793 64.139 146.83 64.0555 146.897 63.9952C146.976 63.9248 147.069 63.8925 147.175 63.8984L148.421 63.9674L148.569 61.2995C148.575 61.193 148.612 61.1096 148.679 61.0492C148.758 60.9788 148.85 60.9465 148.957 60.9524L149.708 60.994C149.814 60.9999 149.897 61.0419 149.957 61.12C150.028 61.188 150.061 61.2753 150.055 61.3818L149.907 64.0497L151.888 64.1594C151.994 64.1653 152.078 64.2073 152.137 64.2854C152.208 64.3534 152.241 64.4407 152.235 64.5472L152.205 65.0904C152.199 65.1969 152.157 65.2853 152.078 65.3557C152.011 65.4161 151.924 65.4433 151.817 65.4374L149.836 65.3277L149.609 69.4334C149.579 69.966 149.647 70.3757 149.813 70.6626C149.979 70.9389 150.27 71.0886 150.686 71.1116L151.66 71.1655C151.767 71.1714 151.85 71.2134 151.91 71.2915C151.981 71.3595 152.013 71.4468 152.007 71.5533L151.975 72.1284C151.97 72.2349 151.927 72.3234 151.849 72.3938C151.781 72.4542 151.694 72.4814 151.588 72.4755L150.485 72.4145Z"
		fill="#10151D" />
	<path
		d="M100.439 113.122C100.279 113.113 100.146 113.049 100.041 112.931C99.9343 112.829 99.8859 112.691 99.8957 112.515L99.9886 110.837C98.8445 110.662 97.8691 110.335 97.0622 109.858C96.2723 109.366 95.6793 108.788 95.2833 108.125C94.9043 107.447 94.7191 106.74 94.7278 106.003C94.7358 105.859 94.7904 105.742 94.8915 105.652C95.0087 105.562 95.1391 105.521 95.2829 105.529L97.4156 105.647C97.5914 105.657 97.7249 105.704 97.8164 105.79C97.9247 105.86 98.0223 105.977 98.1093 106.142C98.255 106.695 98.5972 107.171 99.136 107.569C99.6907 107.969 100.471 108.196 101.478 108.252C102.596 108.314 103.453 108.177 104.048 107.841C104.645 107.49 104.962 106.978 104.999 106.307C105.023 105.86 104.9 105.485 104.628 105.181C104.357 104.878 103.931 104.606 103.352 104.365C102.773 104.109 101.916 103.805 100.782 103.454C98.9217 102.902 97.5726 102.235 96.7346 101.451C95.9135 100.652 95.541 99.5662 95.6171 98.1923C95.6861 96.9462 96.1914 95.9246 97.1329 95.1274C98.0913 94.3152 99.3586 93.8565 100.935 93.7515L101.026 92.0981C101.036 91.9223 101.1 91.7897 101.217 91.7C101.335 91.5944 101.474 91.546 101.633 91.5548L103.095 91.6358C103.255 91.6446 103.388 91.7081 103.493 91.8261C103.599 91.9441 103.647 92.083 103.638 92.2427L103.544 93.9441C104.575 94.1454 105.444 94.506 106.152 95.026C106.878 95.5309 107.415 96.1055 107.763 96.7497C108.128 97.3949 108.31 98.0139 108.31 98.6068C108.302 98.7506 108.247 98.8677 108.146 98.9583C108.045 99.0488 107.922 99.0901 107.779 99.0821L105.55 98.9587C105.198 98.9393 104.967 98.7742 104.856 98.4636C104.805 97.948 104.517 97.5074 103.992 97.1418C103.468 96.7602 102.799 96.5469 101.984 96.5018C101.106 96.4531 100.401 96.5824 99.8717 96.8896C99.3419 97.1967 99.0593 97.6698 99.0239 98.3088C98.9991 98.7562 99.1066 99.1307 99.3463 99.4324C99.5859 99.7341 99.9712 100.012 100.502 100.266C101.049 100.52 101.834 100.812 102.857 101.141C104.245 101.539 105.344 101.96 106.152 102.405C106.977 102.852 107.572 103.389 107.938 104.019C108.304 104.648 108.46 105.434 108.408 106.376C108.332 107.75 107.774 108.849 106.735 109.673C105.697 110.48 104.318 110.925 102.599 111.006L102.508 112.659C102.499 112.819 102.435 112.952 102.317 113.058C102.199 113.163 102.06 113.212 101.901 113.203L100.439 113.122ZM125.999 112.134C125.759 112.12 125.548 112.025 125.365 111.846C125.208 111.645 125.136 111.425 125.15 111.185L125.375 107.123L114.196 106.504C113.932 106.49 113.721 106.394 113.563 106.217C113.404 106.04 113.332 105.82 113.347 105.556L113.536 102.141C113.556 101.782 113.708 101.418 113.993 101.049L125.237 87.4658C125.596 87.077 126.05 86.8979 126.601 86.9284L131.849 87.2191C132.113 87.2337 132.324 87.3295 132.482 87.5065C132.641 87.6836 132.713 87.9039 132.698 88.1675L131.926 102.114L135.089 102.289C135.376 102.305 135.599 102.414 135.756 102.615C135.914 102.792 135.987 103 135.974 103.24L135.777 106.798C135.762 107.062 135.666 107.273 135.489 107.431C135.312 107.59 135.092 107.662 134.828 107.647L131.629 107.47L131.404 111.532C131.391 111.771 131.295 111.982 131.117 112.165C130.94 112.323 130.719 112.395 130.456 112.381L125.999 112.134ZM125.801 102.027L126.271 93.5443L119.762 101.693L125.801 102.027ZM148.43 113.737C146.322 113.62 144.473 113.145 142.885 112.312C141.322 111.456 140.123 110.32 139.288 108.904C138.477 107.489 138.12 105.906 138.217 104.157C138.335 102.024 139.476 99.6478 141.64 97.0275L148.438 88.8589C148.642 88.6539 148.831 88.4961 149.005 88.3856C149.205 88.2524 149.46 88.1944 149.772 88.2117L154.553 88.4765C154.768 88.4884 154.943 88.5822 155.078 88.7579C155.214 88.9097 155.276 89.0934 155.264 89.3091C155.254 89.4768 155.198 89.6299 155.094 89.7684L149.875 96.1135C150.167 96.0575 150.528 96.0415 150.96 96.0654C152.417 96.2182 153.809 96.7039 155.133 97.5224C156.483 98.3183 157.554 99.3871 158.345 100.729C159.136 102.071 159.486 103.556 159.396 105.186C159.303 106.863 158.787 108.373 157.847 109.715C156.908 111.057 155.612 112.091 153.962 112.817C152.335 113.544 150.491 113.851 148.43 113.737ZM148.645 108.557C149.748 108.618 150.701 108.334 151.505 107.705C152.31 107.053 152.746 106.128 152.812 104.929C152.879 103.731 152.547 102.775 151.817 102.062C151.112 101.35 150.196 100.963 149.069 100.9C147.943 100.838 146.978 101.121 146.174 101.749C145.37 102.378 144.935 103.291 144.868 104.489C144.802 105.688 145.133 106.655 145.861 107.393C146.591 108.106 147.519 108.494 148.645 108.557ZM163.806 114.228C163.59 114.216 163.414 114.134 163.278 113.982C163.144 113.806 163.083 113.611 163.095 113.395C163.101 113.275 163.131 113.169 163.184 113.075L172.519 94.9158L161.771 94.3206C161.508 94.306 161.285 94.2095 161.102 94.0312C160.945 93.8302 160.874 93.5979 160.888 93.3343L161.088 89.7398C161.102 89.4762 161.198 89.2652 161.375 89.1067C161.576 88.9496 161.808 88.8783 162.072 88.8929L178.858 89.8226C179.146 89.8385 179.369 89.935 179.527 90.112C179.686 90.2891 179.758 90.5094 179.743 90.773L179.566 93.9721C179.538 94.4753 179.376 95.0072 179.081 95.5677L169.748 113.691C169.453 114.252 169.018 114.516 168.442 114.484L163.806 114.228ZM180.146 115.133C179.907 115.119 179.696 115.023 179.513 114.845C179.356 114.644 179.284 114.424 179.297 114.184L179.55 109.619C179.565 109.356 179.661 109.145 179.838 108.986C180.039 108.829 180.259 108.757 180.499 108.77L185.064 109.023C185.327 109.038 185.538 109.134 185.697 109.311C185.855 109.488 185.927 109.708 185.912 109.972L185.66 114.537C185.646 114.776 185.55 114.987 185.372 115.17C185.195 115.328 184.975 115.4 184.711 115.385L180.146 115.133ZM197.442 116.09C197.203 116.077 197.003 115.994 196.843 115.841C196.709 115.665 196.648 115.458 196.661 115.218L197.776 95.0888L191.554 99.3593C191.379 99.4938 191.195 99.5557 191.003 99.5451C190.788 99.5331 190.591 99.402 190.412 99.1518L189.543 97.9138C189.433 97.7395 189.382 97.5684 189.391 97.4007C189.407 97.1131 189.54 96.8921 189.789 96.7376L197.959 91.1329C198.232 90.9797 198.548 90.9131 198.908 90.933L200.741 91.0345C200.98 91.0478 201.167 91.1423 201.302 91.318C201.462 91.4711 201.535 91.6674 201.522 91.907L200.22 115.415C200.206 115.655 200.111 115.854 199.934 116.012C199.783 116.148 199.587 116.209 199.347 116.196L197.442 116.09Z"
		fill="#10151D" />
	<path
		d="M293.031 287.422C289.791 233.066 243.249 191.135 189.057 193.789C134.866 196.444 93.5796 242.677 96.8196 297.034C100.06 351.39 146.601 393.321 200.793 390.667C254.984 388.012 296.271 341.779 293.031 287.422Z"
		fill="#C1FFD7" stroke="black" stroke-width="5" />
	<mask id="path-6-outside-1_0_1" maskUnits="userSpaceOnUse" x="84.1165" y="206.696" width="223.872" height="197.09"
		fill="black">
		<rect fill="white" x="84.1165" y="206.696" width="223.872" height="197.09" />
		<path
			d="M120.712 225.388C108.951 238.553 100.956 254.677 97.5583 272.082C94.1605 289.487 95.4838 307.538 101.39 324.359C107.297 341.18 117.572 356.157 131.146 367.731C144.72 379.306 161.098 387.057 178.578 390.178C196.057 393.299 214 391.675 230.54 385.477C247.081 379.279 261.615 368.732 272.632 354.933C283.649 341.133 290.747 324.585 293.187 307.009C295.628 289.433 293.322 271.471 286.509 254.989L194.925 292.228L120.712 225.388Z" />
	</mask>
	<path
		d="M120.712 225.388C108.951 238.553 100.956 254.677 97.5583 272.082C94.1605 289.487 95.4838 307.538 101.39 324.359C107.297 341.18 117.572 356.157 131.146 367.731C144.72 379.306 161.098 387.057 178.578 390.178C196.057 393.299 214 391.675 230.54 385.477C247.081 379.279 261.615 368.732 272.632 354.933C283.649 341.133 290.747 324.585 293.187 307.009C295.628 289.433 293.322 271.471 286.509 254.989L194.925 292.228L120.712 225.388Z"
		fill="#C5B3FF" />
	<path
		d="M120.712 225.388C108.951 238.553 100.956 254.677 97.5583 272.082C94.1605 289.487 95.4838 307.538 101.39 324.359C107.297 341.18 117.572 356.157 131.146 367.731C144.72 379.306 161.098 387.057 178.578 390.178C196.057 393.299 214 391.675 230.54 385.477C247.081 379.279 261.615 368.732 272.632 354.933C283.649 341.133 290.747 324.585 293.187 307.009C295.628 289.433 293.322 271.471 286.509 254.989L194.925 292.228L120.712 225.388Z"
		stroke="#F7F6FE" stroke-width="14" mask="url(#path-6-outside-1_0_1)" />
	<defs>
		<filter id="filter0_d_0_1" x="0.801819" y="0.158813" width="415.478" height="479.926" filterUnits="userSpaceOnUse"
			color-interpolation-filters="sRGB">
			<feFlood flood-opacity="0" result="BackgroundImageFix" />
			<feColorMatrix in="SourceAlpha" type="matrix" values="0 0 0 0 0 0 0 0 0 0 0 0 0 0 0 0 0 0 127 0"
				result="hardAlpha" />
			<feOffset dx="20" dy="24" />
			<feComposite in2="hardAlpha" operator="out" />
			<feColorMatrix type="matrix" values="0 0 0 0 0.0627451 0 0 0 0 0.0823529 0 0 0 0 0.113725 0 0 0 1 0" />
			<feBlend mode="normal" in2="BackgroundImageFix" result="effect1_dropShadow_0_1" />
			<feBlend mode="normal" in="SourceGraphic" in2="effect1_dropShadow_0_1" result="shape" />
		</filter>
	</defs>
</svg>