<svg width="40" height="40" viewBox="0 0 40 40" fill="none" xmlns="http://www.w3.org/2000/svg">
<circle cx="20" cy="20" r="20" fill="#B9C7DD"/>
<path d="M25.4166 20.5417V23.625C25.4166 26.225 22.9916 28.3334 20 28.3334C17.0083 28.3334 14.5833 26.225 14.5833 23.625V20.5417C14.5833 23.1417 17.0083 25 20 25C22.9916 25 25.4166 23.1417 25.4166 20.5417Z" fill="#10151D"/>
<path opacity="0.2" d="M25.4166 16.375V20.5417C25.4166 23.1417 22.9916 25 20 25C17.0083 25 14.5833 23.1417 14.5833 20.5417V16.375C14.5833 17.1333 14.7916 17.8333 15.1583 18.4333C16.05 19.9 17.8833 20.8333 20 20.8333C22.1166 20.8333 23.95 19.9 24.8416 18.4333C25.2083 17.8333 25.4166 17.1333 25.4166 16.375Z" fill="#10151D"/>
<path d="M25.4166 16.375C25.4166 17.1334 25.2083 17.8334 24.8416 18.4334C23.95 19.9 22.1166 20.8334 20 20.8334C17.8833 20.8334 16.05 19.9 15.1583 18.4334C14.7916 17.8334 14.5833 17.1334 14.5833 16.375C14.5833 13.775 17.0083 11.6667 20 11.6667C21.5 11.6667 22.85 12.1917 23.8333 13.0417C24.8083 13.9 25.4166 15.075 25.4166 16.375Z" fill="#10151D"/>
</svg>
