<svg width="56" height="56" viewBox="0 0 56 56" fill="none" xmlns="http://www.w3.org/2000/svg">
<circle cx="28" cy="28" r="28" fill="#CAB8FF"/>
<path d="M27.9393 41.5554C35.4592 41.5554 41.5554 35.4592 41.5554 27.9393C41.5554 20.4194 35.4592 14.3232 27.9393 14.3232C20.4194 14.3232 14.3232 20.4194 14.3232 27.9393C14.3232 35.4592 20.4194 41.5554 27.9393 41.5554Z" fill="#10151D"/>
<path opacity="0.2" d="M34.6792 35.7003C34.4205 35.7003 34.1618 35.605 33.9575 35.4007C33.5627 35.0059 33.5627 34.3523 33.9575 33.9574C35.5642 32.3507 36.4492 30.213 36.4492 27.9391C36.4492 25.6653 35.5642 23.5275 33.9575 21.9208C33.5627 21.526 33.5627 20.8724 33.9575 20.4775C34.3524 20.0827 35.006 20.0827 35.4008 20.4775C37.3888 22.4655 38.4917 25.1206 38.4917 27.9391C38.4917 30.7577 37.3888 33.4128 35.4008 35.4007C35.1966 35.605 34.9379 35.7003 34.6792 35.7003Z" fill="#CAB8FF"/>
<path opacity="0.2" d="M21.1994 35.7004C20.9407 35.7004 20.682 35.6051 20.4777 35.4009C18.4898 33.4129 17.3869 30.7578 17.3869 27.9393C17.3869 25.1207 18.4898 22.4656 20.4777 20.4777C20.8726 20.0828 21.5262 20.0828 21.921 20.4777C22.3159 20.8725 22.3159 21.5261 21.921 21.921C20.3143 23.5277 19.4293 25.6654 19.4293 27.9393C19.4293 30.2132 20.3143 32.3509 21.921 33.9576C22.3159 34.3524 22.3159 35.006 21.921 35.4009C21.7168 35.6051 21.4581 35.7004 21.1994 35.7004Z" fill="#CAB8FF"/>
<path d="M30.186 27.6397L28.9605 27.204V24.508H29.0014C29.6005 24.508 30.1043 25.0527 30.1043 25.7063C30.1043 26.2645 30.5672 26.7275 31.1255 26.7275C31.6837 26.7275 32.1467 26.2645 32.1467 25.7063C32.1467 23.9226 30.7442 22.4656 29.0014 22.4656H28.9605V22.2205C28.9605 21.6623 28.4976 21.1993 27.9393 21.1993C27.3811 21.1993 26.9181 21.6623 26.9181 22.2205V22.4656H26.6049C25.0255 22.4656 23.732 23.8 23.732 25.4203C23.732 26.85 24.3719 27.7623 25.679 28.2252L26.9045 28.6609V31.3569H26.8636C26.2645 31.3569 25.7607 30.8123 25.7607 30.1587C25.7607 29.6004 25.2978 29.1375 24.7395 29.1375C24.1813 29.1375 23.7183 29.6004 23.7183 30.1587C23.7183 31.9424 25.1208 33.3993 26.8636 33.3993H26.9045V33.6444C26.9045 34.2027 27.3674 34.6656 27.9257 34.6656C28.4839 34.6656 28.9469 34.2027 28.9469 33.6444V33.3993H29.2601C30.8395 33.3993 32.133 32.065 32.133 30.4446C32.133 29.015 31.5067 28.1027 30.186 27.6397ZM26.3598 26.3054C25.9241 26.1556 25.7744 26.0739 25.7744 25.4339C25.7744 24.9301 26.142 24.5217 26.6049 24.5217H26.9181V26.5096L26.3598 26.3054ZM29.2737 31.3705H28.9605V29.3826L29.5188 29.5732C29.9545 29.723 30.1043 29.8047 30.1043 30.4446C30.0906 30.9484 29.723 31.3705 29.2737 31.3705Z" fill="#CAB8FF"/>
</svg>
