<svg width="16" height="20" viewBox="0 0 16 20" fill="none" xmlns="http://www.w3.org/2000/svg">
	<path fill-rule="evenodd" clip-rule="evenodd"
		d="M0.800049 2.7999C0.800049 2.16338 1.05291 1.55293 1.50299 1.10285C1.95308 0.652759 2.56353 0.399902 3.20005 0.399902H8.70325C9.33972 0.400038 9.95007 0.652984 10.4 1.1031L14.4968 5.1999C14.947 5.64988 15.1999 6.26023 15.2 6.8967V17.1999C15.2 17.8364 14.9472 18.4469 14.4971 18.897C14.047 19.347 13.4366 19.5999 12.8 19.5999H3.20005C2.56353 19.5999 1.95308 19.347 1.50299 18.897C1.05291 18.4469 0.800049 17.8364 0.800049 17.1999V2.7999ZM3.20005 9.9999C3.20005 9.68164 3.32648 9.37642 3.55152 9.15137C3.77656 8.92633 4.08179 8.7999 4.40005 8.7999H11.6C11.9183 8.7999 12.2235 8.92633 12.4486 9.15137C12.6736 9.37642 12.8 9.68164 12.8 9.9999C12.8 10.3182 12.6736 10.6234 12.4486 10.8484C12.2235 11.0735 11.9183 11.1999 11.6 11.1999H4.40005C4.08179 11.1999 3.77656 11.0735 3.55152 10.8484C3.32648 10.6234 3.20005 10.3182 3.20005 9.9999ZM4.40005 13.5999C4.08179 13.5999 3.77656 13.7263 3.55152 13.9514C3.32648 14.1764 3.20005 14.4816 3.20005 14.7999C3.20005 15.1182 3.32648 15.4234 3.55152 15.6484C3.77656 15.8735 4.08179 15.9999 4.40005 15.9999H11.6C11.9183 15.9999 12.2235 15.8735 12.4486 15.6484C12.6736 15.4234 12.8 15.1182 12.8 14.7999C12.8 14.4816 12.6736 14.1764 12.4486 13.9514C12.2235 13.7263 11.9183 13.5999 11.6 13.5999H4.40005Z"
		fill="black" />
</svg>