<svg width="12" height="12" viewBox="0 0 12 12" fill="none" xmlns="http://www.w3.org/2000/svg">
	<path
		d="M11.402 2.82L11.4087 2.81333L8.92867 0.333333L8.22201 1.04L9.62867 2.44667C9.00201 2.68667 8.55534 3.28667 8.55534 4C8.55534 4.92 9.30201 5.66667 10.222 5.66667C10.462 5.66667 10.682 5.61333 10.8887 5.52667V10.3333C10.8887 10.7 10.5887 11 10.222 11C9.85534 11 9.55534 10.7 9.55534 10.3333V7.33333C9.55534 6.6 8.95534 6 8.22201 6H7.55534V1.33333C7.55534 0.6 6.95534 0 6.22201 0H2.22201C1.48867 0 0.888672 0.6 0.888672 1.33333V12H7.55534V7H8.55534V10.3333C8.55534 11.2533 9.30201 12 10.222 12C11.142 12 11.8887 11.2533 11.8887 10.3333V4C11.8887 3.54 11.702 3.12 11.402 2.82ZM6.22201 4.66667H2.22201V1.33333H6.22201V4.66667ZM10.222 4.66667C9.85534 4.66667 9.55534 4.36667 9.55534 4C9.55534 3.63333 9.85534 3.33333 10.222 3.33333C10.5887 3.33333 10.8887 3.63333 10.8887 4C10.8887 4.36667 10.5887 4.66667 10.222 4.66667Z"
		fill="#B5DEFF" />
</svg>