<svg width="13" height="13" viewBox="0 0 13 13" fill="none" xmlns="http://www.w3.org/2000/svg">
	<path
		d="M2.5 13H8.46875C9.84729 13 10.9688 11.8785 10.9688 10.5V9.125C10.9688 8.77982 10.6889 8.5 10.3438 8.5C9.99857 8.5 9.71875 8.77982 9.71875 9.125V10.5C9.71875 11.1892 9.15796 11.75 8.46875 11.75H2.5C1.81079 11.75 1.25 11.1892 1.25 10.5V4.5C1.25 3.81079 1.81079 3.25 2.5 3.25H3.875C4.22018 3.25 4.5 2.97018 4.5 2.625C4.5 2.27982 4.22018 2 3.875 2H2.5C1.12146 2 0 3.12146 0 4.5V10.5C0 11.8785 1.12146 13 2.5 13Z"
		fill="#CAB8FF" />
	<path
		d="M12.1 1C12.1 0.668629 11.8314 0.4 11.5 0.4H6.1C5.76863 0.4 5.5 0.668629 5.5 1C5.5 1.33137 5.76863 1.6 6.1 1.6H10.9V6.4C10.9 6.73137 11.1686 7 11.5 7C11.8314 7 12.1 6.73137 12.1 6.4V1ZM4.42426 8.92426L11.9243 1.42426L11.0757 0.575736L3.57574 8.07574L4.42426 8.92426Z"
		fill="#CAB8FF" />
</svg>