<svg width="40" height="40" viewBox="0 0 40 40" fill="none" xmlns="http://www.w3.org/2000/svg">
<circle cx="20" cy="20" r="20" fill="#9EDAB3"/>
<path opacity="0.4" d="M20 24.4584C20.7502 24.4584 21.3583 23.8502 21.3583 23.1C21.3583 22.3498 20.7502 21.7417 20 21.7417C19.2498 21.7417 18.6417 22.3498 18.6417 23.1C18.6417 23.8502 19.2498 24.4584 20 24.4584Z" fill="#10151D"/>
<path d="M23.875 17.8667H16.125C12.7084 17.8667 11.6667 18.9084 11.6667 22.325V23.875C11.6667 27.2917 12.7084 28.3334 16.125 28.3334H23.875C27.2917 28.3334 28.3334 27.2917 28.3334 23.875V22.325C28.3334 18.9084 27.2917 17.8667 23.875 17.8667ZM20 25.6167C18.6084 25.6167 17.4834 24.4834 17.4834 23.1C17.4834 21.7167 18.6084 20.5834 20 20.5834C21.3917 20.5834 22.5167 21.7167 22.5167 23.1C22.5167 24.4834 21.3917 25.6167 20 25.6167Z" fill="#10151D"/>
<path opacity="0.4" d="M15.9333 17.875V16.9C15.9333 14.4583 16.6249 12.8333 19.9999 12.8333C23.3749 12.8333 24.0666 14.4583 24.0666 16.9V17.875C24.4916 17.8833 24.8749 17.9 25.2333 17.95V16.9C25.2333 14.65 24.6916 11.6666 19.9999 11.6666C15.3083 11.6666 14.7666 14.65 14.7666 16.9V17.9416C15.1166 17.9 15.5083 17.875 15.9333 17.875Z" fill="#10151D"/>
</svg>
