<svg width="49" height="21" viewBox="0 0 49 21" fill="none" xmlns="http://www.w3.org/2000/svg">
	<path
		d="M8.96835 1.9089L9.29566 0.940346C8.98192 0.835694 8.63665 0.887452 8.36796 1.07942C8.09927 1.27139 7.93999 1.5801 7.93999 1.9089H8.96835ZM18.14 4.9682L18.494 5.92744C18.9039 5.77812 19.1742 5.3879 19.1682 4.95415C19.1622 4.52041 18.8812 4.13771 18.4673 3.99964L18.14 4.9682ZM1.92143 10.8761L1.56743 9.91687C1.16237 10.0644 0.893086 10.4474 0.893066 10.8761C0.893047 11.3047 1.16231 11.6877 1.56734 11.8353L1.92143 10.8761ZM18.14 16.7856L18.4673 17.7542C18.8812 17.616 19.1622 17.2335 19.1682 16.7997C19.1742 16.366 18.904 15.9758 18.494 15.8264L18.14 16.7856ZM8.96835 19.8448H7.93999C7.93999 20.1737 8.09927 20.4824 8.36796 20.6743C8.63665 20.8663 8.98191 20.918 9.29565 20.8134L8.96835 19.8448ZM43.9663 3.53228C43.9663 2.96802 43.5059 2.51059 42.938 2.51059C42.3701 2.51059 41.9097 2.96802 41.9097 3.53228H43.9663ZM42.938 16.3211H41.9097V16.3228L42.938 16.3211ZM42.9741 16.4814L43.9056 16.0486L43.9049 16.0472L42.9741 16.4814ZM43.0751 16.6114L43.7338 15.8267L43.7327 15.8259L43.0751 16.6114ZM43.222 16.6868L42.9585 17.6744L42.9597 17.6747L43.222 16.6868ZM43.3871 16.6932L43.2035 15.688L43.2029 15.6881L43.3871 16.6932ZM47.3146 17.0234C47.8735 16.9227 48.2443 16.3909 48.1428 15.8357C48.0415 15.2805 47.5062 14.9121 46.9474 15.0129L47.3146 17.0234ZM40.2731 5.53697C39.7051 5.53697 39.2447 5.9944 39.2447 6.55866C39.2447 7.12292 39.7051 7.58034 40.2731 7.58034V5.53697ZM46.367 7.58034C46.9349 7.58034 47.3954 7.12292 47.3954 6.55866C47.3954 5.9944 46.9349 5.53697 46.367 5.53697V7.58034ZM30.4765 7.95909C29.9928 8.25479 29.8419 8.88409 30.1396 9.36467C30.4372 9.84528 31.0706 9.99514 31.5543 9.69943L30.4765 7.95909ZM35.4786 6.10091L36.0175 6.97108L36.0192 6.97005L35.4786 6.10091ZM35.6556 6.04517L35.7171 7.06503L35.7172 7.06502L35.6556 6.04517ZM35.838 6.07951L35.405 7.0062L35.4055 7.00648L35.838 6.07951ZM35.9822 6.19574L35.158 6.80683L35.1589 6.8079L35.9822 6.19574ZM36.0537 6.36601L35.0364 6.51597L35.0373 6.52143L36.0537 6.36601ZM36.4741 15.7965C36.5605 16.3542 37.0857 16.7367 37.6469 16.6509C38.2083 16.5651 38.5933 16.0433 38.5069 15.4857L36.4741 15.7965ZM31.6626 6.55866C31.6626 5.9944 31.2022 5.53697 30.6343 5.53697C30.0664 5.53697 29.606 5.9944 29.606 6.55866H31.6626ZM29.606 15.6411C29.606 16.2053 30.0664 16.6627 30.6343 16.6627C31.2022 16.6627 31.6626 16.2053 31.6626 15.6411H29.606ZM20.3513 10.7216L19.4629 10.207C19.2881 10.5048 19.2763 10.8702 19.4315 11.1786L20.3513 10.7216ZM22.8373 15.6613L23.7594 15.209L23.7571 15.2044L22.8373 15.6613ZM22.931 15.7813L23.6013 15.0065L23.6004 15.0057L22.931 15.7813ZM23.0645 15.8551L23.3754 14.8812L23.3735 14.8806L23.0645 15.8551ZM23.2166 15.8708L23.1168 14.854L23.1149 14.8542L23.2166 15.8708ZM23.3627 15.826L23.8576 16.7216L23.8624 16.719L23.3627 15.826ZM26.9417 15.0181C27.4381 14.7438 27.6167 14.1217 27.3408 13.6286C27.0648 13.1354 26.4386 12.958 25.9423 13.2321L26.9417 15.0181ZM25.6846 10.7216V11.7433H25.6888L25.6846 10.7216ZM25.8844 10.6645L26.4274 11.5322L26.4283 11.5315L25.8844 10.6645ZM26.0242 10.5116L26.9446 10.9673L26.9452 10.9662L26.0242 10.5116ZM26.0625 10.3085L25.0383 10.4003L25.0384 10.4017L26.0625 10.3085ZM25.9878 10.1157L25.165 10.7285L25.1658 10.7296L25.9878 10.1157ZM23.3627 6.63653L24.1855 6.0237L24.1822 6.01942L23.3627 6.63653ZM23.0355 6.4865L22.9765 5.46649L22.9764 5.4665L23.0355 6.4865ZM22.8583 6.54143L22.3235 5.66873L22.3228 5.66915L22.8583 6.54143ZM22.7279 6.67275L21.8427 6.15261L21.8395 6.15806L22.7279 6.67275ZM8.64104 2.87746L17.8126 5.93676L18.4673 3.99964L9.29566 0.940346L8.64104 2.87746ZM17.7859 4.00896L1.56743 9.91687L2.27543 11.8353L18.494 5.92744L17.7859 4.00896ZM1.56734 11.8353L17.7859 17.7448L18.494 15.8264L2.27552 9.91687L1.56734 11.8353ZM17.8126 15.817L8.64105 18.8762L9.29565 20.8134L18.4673 17.7542L17.8126 15.817ZM9.99673 19.8448V1.9089H7.93999V19.8448H9.99673ZM41.9097 3.53228V6.55866H43.9663V3.53228H41.9097ZM41.9097 6.55866V16.3211H43.9663V6.55866H41.9097ZM41.9097 16.3228C41.9099 16.5275 41.9554 16.7298 42.0433 16.9156L43.9049 16.0472C43.9454 16.1325 43.9662 16.2255 43.9663 16.3194L41.9097 16.3228ZM42.0426 16.9142C42.1303 17.1007 42.2584 17.2654 42.4174 17.3969L43.7327 15.8259C43.8061 15.8865 43.8651 15.9625 43.9056 16.0486L42.0426 16.9142ZM42.4164 17.396C42.5748 17.5273 42.7599 17.6221 42.9585 17.6744L43.4855 15.6992C43.5761 15.7231 43.6611 15.7665 43.7338 15.8267L42.4164 17.396ZM42.9597 17.6747C43.1592 17.727 43.368 17.7352 43.5714 17.6983L43.2029 15.6881C43.2965 15.6711 43.3926 15.6749 43.4843 15.6989L42.9597 17.6747ZM43.5708 17.6984L47.3146 17.0234L46.9474 15.0129L43.2035 15.688L43.5708 17.6984ZM42.938 5.53697H40.2731V7.58034H42.938V5.53697ZM42.938 7.58034H46.367V5.53697H42.938V7.58034ZM31.5543 9.69943L36.0175 6.97108L34.9396 5.23075L30.4765 7.95909L31.5543 9.69943ZM36.0192 6.97005C35.9283 7.02585 35.8245 7.05864 35.7171 7.06503L35.5941 5.0253C35.3612 5.03916 35.1358 5.11028 34.9379 5.23178L36.0192 6.97005ZM35.7172 7.06502C35.6098 7.07143 35.5025 7.05119 35.405 7.0062L36.271 5.15282C36.0595 5.05528 35.8269 5.01142 35.594 5.02531L35.7172 7.06502ZM35.4055 7.00648C35.3081 6.96162 35.2229 6.89319 35.158 6.80683L36.8064 5.58465C36.6664 5.39827 36.482 5.24996 36.2704 5.15254L35.4055 7.00648ZM35.1589 6.8079C35.0946 6.72261 35.0523 6.62238 35.0364 6.51597L37.0709 6.21605C37.0366 5.98612 36.9451 5.76887 36.8055 5.58358L35.1589 6.8079ZM35.0373 6.52143L36.4741 15.7965L38.5069 15.4857L37.0701 6.21059L35.0373 6.52143ZM29.606 6.55866V15.6411H31.6626V6.55866H29.606ZM19.4315 11.1786L21.9176 16.1183L23.7571 15.2044L21.2711 10.2647L19.4315 11.1786ZM21.9153 16.1137C21.9988 16.2819 22.1162 16.433 22.2616 16.5569L23.6004 15.0057C23.6676 15.063 23.7213 15.1324 23.7594 15.209L21.9153 16.1137ZM22.2607 16.5561C22.4054 16.6797 22.5738 16.7727 22.7556 16.8296L23.3735 14.8806C23.4571 14.9068 23.5347 14.9495 23.6013 15.0065L22.2607 16.5561ZM22.7537 16.829C22.9363 16.8865 23.1284 16.9063 23.3184 16.8875L23.1149 14.8542C23.2024 14.8456 23.291 14.8546 23.3754 14.8812L22.7537 16.829ZM23.3165 16.8877C23.5067 16.8693 23.6907 16.8126 23.8576 16.7216L22.8679 14.9303C22.9444 14.8886 23.029 14.8625 23.1168 14.854L23.3165 16.8877ZM23.8624 16.719L26.9417 15.0181L25.9423 13.2321L22.863 14.933L23.8624 16.719ZM20.3513 11.7433H25.6846V9.7H20.3513V11.7433ZM25.6888 11.7433C25.9506 11.7422 26.2063 11.6687 26.4274 11.5322L25.3413 9.79679C25.4425 9.73436 25.5598 9.70048 25.6804 9.7L25.6888 11.7433ZM26.4283 11.5315C26.65 11.3942 26.8285 11.1987 26.9446 10.9673L25.1039 10.0558C25.1569 9.94999 25.2386 9.86046 25.3404 9.79746L26.4283 11.5315ZM26.9452 10.9662C27.0614 10.7339 27.1104 10.4739 27.0866 10.2154L25.0384 10.4017C25.0274 10.2828 25.0499 10.1636 25.1033 10.0569L26.9452 10.9662ZM27.0867 10.2168C27.0631 9.95773 26.9674 9.71002 26.8099 9.50181L25.1658 10.7296C25.0931 10.6336 25.0491 10.5196 25.0383 10.4003L27.0867 10.2168ZM26.8106 9.50288L24.1855 6.02371L22.5399 7.24935L25.165 10.7285L26.8106 9.50288ZM24.1822 6.01942C24.0425 5.83621 23.8594 5.68974 23.6489 5.59321L22.7871 7.44858C22.6907 7.40438 22.6069 7.33735 22.5431 7.25363L24.1822 6.01942ZM23.6489 5.59321C23.4387 5.49683 23.2078 5.4533 22.9765 5.46649L23.0945 7.50651C22.9887 7.51254 22.8832 7.49263 22.7871 7.44858L23.6489 5.59321ZM22.9764 5.4665C22.7454 5.4797 22.5211 5.54923 22.3235 5.66873L23.393 7.41412C23.3028 7.46865 23.2004 7.50046 23.0946 7.5065L22.9764 5.4665ZM22.3228 5.66915C22.1252 5.78888 21.9604 5.95497 21.8427 6.15262L23.6131 7.19288C23.5593 7.28305 23.4841 7.35894 23.3937 7.4137L22.3228 5.66915ZM21.8395 6.15806L19.4629 10.207L21.2396 11.2363L23.6162 7.18744L21.8395 6.15806Z"
		fill="#3A3A3A" />
</svg>