<svg width="50" height="50" viewBox="0 0 50 50" fill="none" xmlns="http://www.w3.org/2000/svg">
	<circle cx="25" cy="25" r="24" fill="#10151D" stroke="#10151D" stroke-width="2" />
	<path
		d="M14.2045 35.72C14.8587 36.4013 15.9843 36.4383 16.6495 35.7454L23.487 28.6229C23.9569 28.8102 24.4669 28.9131 25 28.9131C27.3395 28.9131 29.2366 26.937 29.2366 24.5C29.2366 23.8203 29.0889 23.1768 28.8255 22.6021L25.5873 25.9751H24.4159L23.5877 25.1118V23.8921L26.8272 20.5176C26.2741 20.2417 25.6544 20.0869 25 20.0869C22.6605 20.0869 20.7634 22.063 20.7634 24.5C20.7634 25.0553 20.8622 25.5865 21.042 26.076L14.2045 33.1985C13.536 33.8948 13.536 35.0237 14.2045 35.72Z"
		fill="#FFB8D0" />
	<path
		d="M37 26.0625V22.9375L35.3617 22.7241C35.2483 22.0034 35.0678 21.3066 34.8269 20.6406L36.1422 19.603L34.6422 16.897L33.1202 17.5659C32.6814 17.0093 32.1911 16.4985 31.6567 16.0415L32.2989 14.4561L29.7011 12.8936L28.705 14.2637C28.0656 14.0127 27.3967 13.8247 26.7048 13.7065L26.5 12H23.5L23.2952 13.7065C22.6033 13.8247 21.9344 14.0127 21.295 14.2637L20.2989 12.8936L17.7011 14.4561L18.3433 16.0415C17.8089 16.4985 17.3186 17.0093 16.8798 17.5659L15.3578 16.897L13.8578 19.603L15.1731 20.6406C14.9322 21.3066 14.7517 22.0034 14.6383 22.7241L13 22.9375V26.0625L14.6383 26.2759C14.7517 26.9966 14.9322 27.6934 15.1731 28.3594L13.8578 29.397L14.5926 30.7226L17.761 27.4221C17.4225 26.5153 17.2363 25.5299 17.2363 24.5C17.2363 20.0407 20.7191 16.4128 25 16.4128C29.2809 16.4128 32.7637 20.0407 32.7637 24.5C32.7637 28.9593 29.2809 32.5872 25 32.5872C24.0113 32.5872 23.0654 32.3932 22.195 32.0404L19.0264 35.341L20.2989 36.1064L21.295 34.7363C21.9344 34.9873 22.6033 35.1753 23.2952 35.2935L23.5 37H26.5L26.7048 35.2935C27.3967 35.1753 28.0656 34.9873 28.705 34.7363L29.7011 36.1064L32.2989 34.5439L31.6567 32.9585C32.1911 32.5015 32.6814 31.9907 33.1202 31.4341L34.6422 32.103L36.1422 29.397L34.8269 28.3594C35.0678 27.6934 35.2483 26.9966 35.3617 26.2759L37 26.0625Z"
		fill="#FFB8D0" />
</svg>