<svg width="38" height="38" viewBox="0 0 38 38" fill="none" xmlns="http://www.w3.org/2000/svg">
<g filter="url(#filter0_i_231:4)">
<circle cx="19" cy="18" r="18" fill="black"/>
</g>
<g filter="url(#filter1_d_231:4)">
<circle cx="19" cy="18" r="14" fill="url(#paint0_linear_231:4)"/>
<circle cx="19" cy="18" r="13.5" stroke="url(#paint1_linear_231:4)"/>
</g>
<path d="M27.292 20.586C25.8105 21.2561 24.16 21.4589 22.5604 21.1673C20.9608 20.8757 19.488 20.1036 18.3382 18.9538C17.1885 17.8041 16.4164 16.3313 16.1248 14.7316C15.8332 13.132 16.0359 11.4815 16.706 10C15.5266 10.533 14.4941 11.3442 13.697 12.364C12.9 13.3837 12.3623 14.5816 12.1299 15.8549C11.8976 17.1282 11.9777 18.4388 12.3632 19.6743C12.7487 20.9098 13.4282 22.0334 14.3434 22.9486C15.2586 23.8638 16.3822 24.5433 17.6177 24.9288C18.8533 25.3144 20.1639 25.3944 21.4372 25.1621C22.7104 24.9298 23.9083 24.392 24.9281 23.595C25.9478 22.798 26.759 21.7654 27.292 20.586Z" fill="white"/>
<defs>
<filter id="filter0_i_231:4" x="1" y="0" width="37" height="38" filterUnits="userSpaceOnUse" color-interpolation-filters="sRGB">
<feFlood flood-opacity="0" result="BackgroundImageFix"/>
<feBlend mode="normal" in="SourceGraphic" in2="BackgroundImageFix" result="shape"/>
<feColorMatrix in="SourceAlpha" type="matrix" values="0 0 0 0 0 0 0 0 0 0 0 0 0 0 0 0 0 0 127 0" result="hardAlpha"/>
<feOffset dx="1" dy="2"/>
<feGaussianBlur stdDeviation="4.5"/>
<feComposite in2="hardAlpha" operator="arithmetic" k2="-1" k3="1"/>
<feColorMatrix type="matrix" values="0 0 0 0 0.197083 0 0 0 0 0.25375 0 0 0 0 0.352917 0 0 0 1 0"/>
<feBlend mode="normal" in2="shape" result="effect1_innerShadow_231:4"/>
</filter>
<filter id="filter1_d_231:4" x="0" y="0" width="38" height="38" filterUnits="userSpaceOnUse" color-interpolation-filters="sRGB">
<feFlood flood-opacity="0" result="BackgroundImageFix"/>
<feColorMatrix in="SourceAlpha" type="matrix" values="0 0 0 0 0 0 0 0 0 0 0 0 0 0 0 0 0 0 127 0" result="hardAlpha"/>
<feMorphology radius="1" operator="erode" in="SourceAlpha" result="effect1_dropShadow_231:4"/>
<feOffset dy="1"/>
<feGaussianBlur stdDeviation="3"/>
<feComposite in2="hardAlpha" operator="out"/>
<feColorMatrix type="matrix" values="0 0 0 0 0.130556 0 0 0 0 0.156818 0 0 0 0 0.202778 0 0 0 1 0"/>
<feBlend mode="normal" in2="BackgroundImageFix" result="effect1_dropShadow_231:4"/>
<feBlend mode="normal" in="SourceGraphic" in2="effect1_dropShadow_231:4" result="shape"/>
</filter>
<linearGradient id="paint0_linear_231:4" x1="19" y1="4" x2="19" y2="32" gradientUnits="userSpaceOnUse">
<stop stop-color="#3D4552"/>
<stop offset="0.650888" stop-color="#1B2431"/>
</linearGradient>
<linearGradient id="paint1_linear_231:4" x1="19" y1="4" x2="19" y2="32" gradientUnits="userSpaceOnUse">
<stop stop-color="#515F75"/>
<stop offset="1" stop-opacity="0"/>
</linearGradient>
</defs>
</svg>
