<svg width="13" height="13" xmlns="http://www.w3.org/2000/svg" xml:space="preserve" version="1.1">

	<g>
		<g stroke="null" id="svg_1">
			<path stroke="null" id="svg_2" fill="#CAB8FF"
				d="m12.97403,6.48434c0,0.62681 -0.50798,1.13479 -1.13513,1.13479l-4.21425,0l0,4.21445c0,0.62698 -0.50815,1.13496 -1.13488,1.13479c-0.31342,0 -0.59711,-0.12683 -0.80228,-0.33211c-0.20543,-0.20557 -0.33242,-0.48912 -0.33228,-0.80237l-0.00017,-4.21493l-4.21476,0c-0.31322,0 -0.59669,-0.12683 -0.80228,-0.33242c-0.20509,-0.20509 -0.332,-0.48878 -0.332,-0.8022c-0.00017,-0.6267 0.50781,-1.13479 1.13488,-1.13479l4.21434,0l0,-4.2145c0,-0.6269 0.50826,-1.13504 1.13504,-1.13504c0.62656,0.00017 1.13437,0.50781 1.13471,1.13462l0,4.21493l4.21476,0c0.62667,0.00034 1.134,0.50809 1.13431,1.13479z" />
		</g>
	</g>
</svg>