<svg width="22" height="22" viewBox="0 0 22 22" fill="none" xmlns="http://www.w3.org/2000/svg">
	<path
		d="M3.29993 13.2V16.5C3.29993 18.3226 6.74733 19.7999 10.9999 19.7999C15.2525 19.7999 18.6999 18.3226 18.6999 16.5V13.2C18.6999 15.0227 15.2525 16.5 10.9999 16.5C6.74733 16.5 3.29993 15.0227 3.29993 13.2Z"
		fill="#10151D" />
	<path
		d="M3.29993 7.69995V11C3.29993 12.8226 6.74733 14.2999 10.9999 14.2999C15.2525 14.2999 18.6999 12.8226 18.6999 11V7.69995C18.6999 9.52265 15.2525 11 10.9999 11C6.74733 11 3.29993 9.52265 3.29993 7.69995Z"
		fill="#10151D" />
	<path
		d="M18.6999 5.49995C18.6999 7.32265 15.2525 8.79995 10.9999 8.79995C6.74733 8.79995 3.29993 7.32265 3.29993 5.49995C3.29993 3.67725 6.74733 2.19995 10.9999 2.19995C15.2525 2.19995 18.6999 3.67725 18.6999 5.49995Z"
		fill="#10151D" />
</svg>