<svg width="22" height="22" viewBox="0 0 22 22" fill="none" xmlns="http://www.w3.org/2000/svg">
	<path
		d="M3.29999 13.2V16.5C3.29999 18.3226 6.74739 19.7999 11 19.7999C15.2526 19.7999 18.7 18.3226 18.7 16.5V13.2C18.7 15.0227 15.2526 16.5 11 16.5C6.74739 16.5 3.29999 15.0227 3.29999 13.2Z"
		fill="#C1FFD7" />
	<path
		d="M3.29999 7.69995V11C3.29999 12.8226 6.74739 14.2999 11 14.2999C15.2526 14.2999 18.7 12.8226 18.7 11V7.69995C18.7 9.52265 15.2526 11 11 11C6.74739 11 3.29999 9.52265 3.29999 7.69995Z"
		fill="#C1FFD7" />
	<path
		d="M18.7 5.49995C18.7 7.32265 15.2526 8.79995 11 8.79995C6.74739 8.79995 3.29999 7.32265 3.29999 5.49995C3.29999 3.67725 6.74739 2.19995 11 2.19995C15.2526 2.19995 18.7 3.67725 18.7 5.49995Z"
		fill="#C1FFD7" />
</svg>