<svg width="20" height="20" viewBox="0 0 20 20" fill="none" xmlns="http://www.w3.org/2000/svg">
	<path
		d="M0.500029 3H2.49999C2.77618 3 3.00002 3.22385 3.00002 3.50003V11.4999C3.00002 11.7761 2.77618 11.9999 2.49999 11.9999H0.500029C0.223846 11.9999 0 11.7761 0 11.4999V3.50003C0 3.22385 0.223846 3 0.500029 3Z"
		fill="#C1FFD7" />
	<path
		d="M12 9.49995V4.99999C11.9989 3.89586 11.1042 3.00109 10 3.00002H8.99861C8.98107 1.28753 8.7827 0 6.49999 0C6.22396 0 5.99996 0.223846 5.99996 0.500029C5.99996 3.08364 5.24588 3.83422 4 3.97201V11.4999C5.00006 11.4999 5.00006 11.9999 5.99996 11.9999H9.50002C10.8802 11.9984 11.9985 10.8801 12 9.49995Z"
		fill="#C1FFD7" />
	<path
		d="M17.5 8H19.5C19.7762 8 20 8.22385 20 8.50003V16.4999C20 16.7761 19.7762 16.9999 19.5 16.9999H17.5C17.224 16.9999 17 16.7761 17 16.4999V8.50003C17 8.22385 17.2238 8 17.5 8Z"
		fill="#C1FFD7" />
	<path
		d="M13 8V9.49993C12.9977 11.432 11.432 12.9977 9.49994 13H8V15C8.00107 16.1041 8.89584 16.9988 9.99996 17.0001H11.0014C11.0189 18.7124 11.2173 19.9999 13.5 19.9999C13.776 19.9999 14 19.7761 14 19.4999C14 16.9163 14.7541 16.1657 16 16.0281V8.50003C15 8.50003 15 8 14 8H13Z"
		fill="#C1FFD7" />
</svg>