<svg width="736" height="736" viewBox="0 0 736 736" fill="none" xmlns="http://www.w3.org/2000/svg">
	<path
		d="M367.7 0C570.78 0 735.4 164.63 735.4 367.7C735.4 570.78 570.78 735.4 367.7 735.4C164.63 735.4 0 570.78 0 367.7C0 164.63 164.63 0 367.7 0Z"
		fill="#10151D" />
	<path d="M238.16 191.83H501.97L370.07 367.7L501.97 543.57H238.16V191.83Z" stroke="white" stroke-width="48.69"
		stroke-linejoin="round" />
	<path d="M238.16 191.83H501.97L370.07 367.7L501.97 543.57H238.16V191.83Z" fill="#10151D" stroke="white"
		stroke-width="48.69" stroke-linejoin="round" />
	<path d="M427.12 437.48L404.67 402.59H385.25V367.7H262.5V402.59H309.37V437.48H427.12Z" fill="#F4BB3B" />
	<path d="M309.33 297.92V332.81H262.5V367.7H385.31V332.81H392.3L418.12 297.92H309.33Z" fill="#60D8A4" />
	<path d="M481.87 402.59H309.37V437.48H481.87V402.59Z" fill="#F4BB3B" />
	<path d="M519.25 437.48H344.26V472.37H519.25V437.48Z" fill="#FF5A5A" />
	<path d="M519.25 263.04H344.26V297.93H519.25V263.04Z" fill="#1682FE" />
	<path d="M481.87 297.93H309.37V332.82H481.87V297.93Z" fill="#60D8A4" />
	<path
		d="M426.66 332.81H365.8L350.59 353.09C347.43 357.306 345.723 362.432 345.723 367.7C345.723 372.968 347.43 378.095 350.59 382.31L365.8 402.59H426.66L400.5 367.7L426.66 332.81Z"
		fill="white" />
	<path d="M213.81 332.81H178.92V367.7H213.81V332.81Z" fill="#60D8A4" />
	<path d="M213.81 367.7H178.92V402.59H213.81V367.7Z" fill="#F4BB3B" />
</svg>