<svg xmlns="http://www.w3.org/2000/svg" xmlns:xlink="http://www.w3.org/1999/xlink" version="1.1" id="Layer_1" x="0px"
	y="0px" viewBox="0 0 36 36" style="enable-background:new 0 0 36 36;" xml:space="preserve">
	<style type="text/css">
		.st0 {
			fill: url(#SVGID_1_);
		}

		.st1 {
			fill: #FFFFFF;
		}
	</style>
	<g>
		<linearGradient id="SVGID_1_" gradientUnits="userSpaceOnUse" x1="5.7854" y1="5.7856" x2="26.6963" y2="26.6964">
			<stop offset="0" style="stop-color:#6033DB" />
			<stop offset="0.9988" style="stop-color:#7957D5" />
		</linearGradient>
		<path class="st0" d="M18,0c9.941,0,18,8.059,18,18s-8.06,18-18,18S0,27.943,0,18S8.058,0,18,0" />
	</g>
	<path class="st1"
		d="M28.423,23.37c0,0-2.419,0.633-3.283,1.555c0,0,0.864,0.288,1.209,0.633c0,0-6.22,6.104-6.911-0.346  l-0.27-10.308h3.829c0.429,0,0.777-0.348,0.777-0.777v0c0-0.429-0.348-0.777-0.777-0.777h-3.87l-0.121-4.613  c0.914-0.392,1.554-1.298,1.554-2.355c0-1.414-1.147-2.562-2.562-2.562c-1.414,0-2.562,1.147-2.562,2.562  c0,1.057,0.64,1.964,1.554,2.355l-0.121,4.613h-3.87c-0.429,0-0.777,0.348-0.777,0.777v0c0,0.429,0.348,0.777,0.777,0.777h3.829  l-0.27,10.308c-0.691,6.45-6.911,0.346-6.911,0.346c0.346-0.346,1.209-0.633,1.209-0.633c-0.864-0.921-3.283-1.555-3.283-1.555  c-0.576,2.016,0.23,4.262,0.23,4.262l0.783-1.382c1.578,2.937,5.782,4.722,7.106,4.78C17.021,31.086,18,32.181,18,32.181  s0.979-1.094,2.304-1.152c1.325-0.058,5.528-1.843,7.106-4.78l0.783,1.382C28.193,27.631,28.999,25.385,28.423,23.37z" />
</svg>