<?xml version="1.0" encoding="utf-8"?>
<!-- Generator: Adobe Illustrator 25.0.1, SVG Export Plug-In . SVG Version: 6.00 Build 0)  -->
<svg version="1.0" id="Layer_1" xmlns="http://www.w3.org/2000/svg" xmlns:xlink="http://www.w3.org/1999/xlink" x="0px"
	y="0px" viewBox="0 0 53.9 36" style="enable-background:new 0 0 53.9 36;" xml:space="preserve">
	<style type="text/css">
		.st0 {
			fill: #22996E;
		}

		.st1 {
			fill: #FFFFFF;
		}
	</style>
	<circle class="st0" cx="26.9" cy="18" r="12.3" />
	<path class="st1" d="M26.9,23.4h-6.7c-1,0-1.5-1-1-1.8l3.8-6c0.3-0.4,0.7-0.7,1.2-0.7h5.2c0.5,0,1,0.3,1.2,0.7l3.8,6
	c0.5,0.8,0,1.8-1,1.8C33.6,23.4,26.9,23.4,26.9,23.4z" />
	<path class="st1"
		d="M27.6,9.8l1.6,2.5c0.3,0.5,0,1.2-0.7,1.2h-3.3c-0.7,0-1-0.7-0.7-1.2l1.6-2.5C26.7,9.3,27.3,9.3,27.6,9.8z" />
</svg>