<svg xmlns="http://www.w3.org/2000/svg" xmlns:xlink="http://www.w3.org/1999/xlink" version="1.1" id="Layer_1" x="0px"
	y="0px" viewBox="0 0 36 36" style="enable-background:new 0 0 36 36;" xml:space="preserve">
	<style type="text/css">
		.st0 {
			fill: #FED955;
		}

		.st1 {
			fill: #9695F8;
		}

		.st2 {
			fill: #5552FD;
		}
	</style>
	<rect x="6" y="12" class="st0" width="3" height="3" />
	<rect x="6" y="18" class="st0" width="3" height="3" />
	<rect x="6" y="15" class="st0" width="3" height="3" />
	<rect x="6" y="21" class="st0" width="3" height="3" />
	<rect x="18" y="6" class="st0" width="3" height="3" />
	<rect x="18" y="27" class="st0" width="3" height="3" />
	<rect x="21" y="6" class="st0" width="3" height="3" />
	<rect x="24" y="6" class="st1" width="3" height="3" />
	<rect x="9" y="6" class="st1" width="3" height="3" />
	<rect x="27" y="24" class="st1" width="3" height="3" />
	<rect x="6" y="24" class="st1" width="3" height="3" />
	<rect x="21" y="3" class="st1" width="3" height="3" />
	<rect x="21" class="st2" width="3" height="3" />
	<rect x="21" y="33" class="st2" width="3" height="3" />
	<rect x="21" y="30" class="st1" width="3" height="3" />
	<rect x="15" y="3" class="st1" width="3" height="3" />
	<rect x="15" class="st2" width="3" height="3" />
	<rect x="15" y="33" class="st2" width="3" height="3" />
	<rect x="15" y="30" class="st1" width="3" height="3" />
	<rect x="18" y="3" class="st1" width="3" height="3" />
	<rect x="18" class="st2" width="3" height="3" />
	<rect x="18" y="33" class="st2" width="3" height="3" />
	<rect x="18" y="30" class="st1" width="3" height="3" />
	<rect x="12" y="3" class="st1" width="3" height="3" />
	<rect x="12" class="st2" width="3" height="3" />
	<rect x="12" y="33" class="st2" width="3" height="3" />
	<rect x="12" y="30" class="st1" width="3" height="3" />
	<rect x="27" y="9" class="st1" width="3" height="3" />
	<rect x="6" y="9" class="st1" width="3" height="3" />
	<rect x="24" y="27" class="st1" width="3" height="3" />
	<rect x="9" y="27" class="st1" width="3" height="3" />
	<rect x="30" y="12" class="st1" width="3" height="3" />
	<rect x="3" y="12" class="st1" width="3" height="3" />
	<rect y="12" class="st2" width="3" height="3" />
	<rect x="3" y="9" class="st2" width="3" height="3" />
	<rect x="30" y="9" class="st2" width="3" height="3" />
	<rect x="24" y="30" class="st2" width="3" height="3" />
	<rect x="3" y="24" class="st2" width="3" height="3" />
	<rect x="6" y="6" class="st2" width="3" height="3" />
	<rect x="27" y="6" class="st2" width="3" height="3" />
	<rect x="27" y="27" class="st2" width="3" height="3" />
	<rect x="6" y="27" class="st2" width="3" height="3" />
	<rect x="9" y="3" class="st2" width="3" height="3" />
	<rect x="24" y="3" class="st2" width="3" height="3" />
	<rect x="30" y="24" class="st2" width="3" height="3" />
	<rect x="9" y="30" class="st2" width="3" height="3" />
	<rect x="33" y="12" class="st2" width="3" height="3" />
	<rect x="30" y="15" class="st1" width="3" height="3" />
	<rect x="3" y="15" class="st1" width="3" height="3" />
	<rect y="15" class="st2" width="3" height="3" />
	<rect x="33" y="15" class="st2" width="3" height="3" />
	<rect x="30" y="18" class="st1" width="3" height="3" />
	<rect x="3" y="18" class="st1" width="3" height="3" />
	<rect y="18" class="st2" width="3" height="3" />
	<rect x="33" y="18" class="st2" width="3" height="3" />
	<rect x="30" y="21" class="st1" width="3" height="3" />
	<rect x="3" y="21" class="st1" width="3" height="3" />
	<rect y="21" class="st2" width="3" height="3" />
	<rect x="33" y="21" class="st2" width="3" height="3" />
	<rect x="21" y="27" class="st0" width="3" height="3" />
	<rect x="18" y="12" class="st0" width="3" height="3" />
	<rect x="18" y="18" class="st0" width="3" height="3" />
	<rect x="18" y="21" class="st0" width="3" height="3" />
	<rect x="18" y="9" class="st0" width="3" height="3" />
	<rect x="18" y="24" class="st0" width="3" height="3" />
	<rect x="12" y="18" class="st0" width="3" height="3" />
	<rect x="12" y="15" class="st0" width="3" height="3" />
	<rect x="12" y="21" class="st0" width="3" height="3" />
	<rect x="12" y="9" class="st0" width="3" height="3" />
	<rect x="12" y="24" class="st0" width="3" height="3" />
	<rect x="21" y="18" class="st0" width="3" height="3" />
	<rect x="21" y="15" class="st0" width="3" height="3" />
	<rect x="21" y="21" class="st0" width="3" height="3" />
	<rect x="21" y="9" class="st0" width="3" height="3" />
	<rect x="21" y="24" class="st0" width="3" height="3" />
	<rect x="15" y="6" class="st0" width="3" height="3" />
	<rect x="15" y="27" class="st0" width="3" height="3" />
	<rect x="12" y="6" class="st0" width="3" height="3" />
	<rect x="12" y="27" class="st0" width="3" height="3" />
	<rect x="15" y="12" class="st0" width="3" height="3" />
	<rect x="15" y="18" class="st0" width="3" height="3" />
	<rect x="12" y="12" class="st2" width="3" height="3" />
	<rect x="18" y="15" class="st2" width="3" height="3" />
	<rect x="24" y="12" class="st2" width="3" height="3" />
	<rect x="24" y="18" class="st2" width="3" height="3" />
	<rect x="24" y="15" class="st2" width="3" height="3" />
	<rect x="24" y="21" class="st2" width="3" height="3" />
	<rect x="24" y="9" class="st2" width="3" height="3" />
	<rect x="24" y="24" class="st2" width="3" height="3" />
	<rect x="9" y="12" class="st2" width="3" height="3" />
	<rect x="9" y="18" class="st2" width="3" height="3" />
	<rect x="9" y="15" class="st2" width="3" height="3" />
	<rect x="9" y="21" class="st2" width="3" height="3" />
	<rect x="9" y="9" class="st2" width="3" height="3" />
	<rect x="9" y="24" class="st2" width="3" height="3" />
	<rect x="21" y="12" class="st2" width="3" height="3" />
	<rect x="15" y="15" class="st2" width="3" height="3" />
	<rect x="15" y="21" class="st0" width="3" height="3" />
	<rect x="15" y="9" class="st0" width="3" height="3" />
	<rect x="15" y="24" class="st0" width="3" height="3" />
	<rect x="27" y="12" class="st0" width="3" height="3" />
	<rect x="27" y="18" class="st0" width="3" height="3" />
	<rect x="27" y="15" class="st0" width="3" height="3" />
	<rect x="27" y="21" class="st0" width="3" height="3" />
</svg>