<svg xmlns:dc="http://purl.org/dc/elements/1.1/" xmlns:cc="http://creativecommons.org/ns#"
	xmlns:rdf="http://www.w3.org/1999/02/22-rdf-syntax-ns#" xmlns:svg="http://www.w3.org/2000/svg"
	xmlns="http://www.w3.org/2000/svg" xmlns:sodipodi="http://sodipodi.sourceforge.net/DTD/sodipodi-0.dtd"
	xmlns:inkscape="http://www.inkscape.org/namespaces/inkscape" inkscape:version="1.0 (4035a4f, 2020-05-01)"
	sodipodi:docname="Origin-Dollar-OUSD-Coin-Icon-256x256.svg" id="svg869" version="1.1" viewBox="0 0 256 256"
	height="256" width="256">
	<metadata id="metadata873">
		<rdf:RDF>
			<cc:Work rdf:about="">
				<dc:format>image/svg+xml</dc:format>
				<dc:type rdf:resource="http://purl.org/dc/dcmitype/StillImage" />
				<dc:title />
			</cc:Work>
		</rdf:RDF>
	</metadata>
	<sodipodi:namedview fit-margin-bottom="0" fit-margin-right="0" fit-margin-left="0" fit-margin-top="0"
		inkscape:current-layer="svg869" inkscape:window-maximized="1" inkscape:window-y="0" inkscape:window-x="0"
		inkscape:cy="125.43355" inkscape:cx="161.60885" inkscape:zoom="1.746597" showgrid="false" id="namedview871"
		inkscape:window-height="878" inkscape:window-width="1440" inkscape:pageshadow="2" inkscape:pageopacity="0"
		guidetolerance="10" gridtolerance="10" objecttolerance="10" borderopacity="1" bordercolor="#666666"
		pagecolor="#ffffff" />
	<defs id="defs844">
		<linearGradient gradientUnits="userSpaceOnUse" gradientTransform="scale(0.65682253,1.5224813)" y2="11.117607"
			y1="38.868256" x2="13.067633" x1="16.060665" id="4hqdw92s0a">
			<stop id="stop833" stop-color="#FFF" offset=".058%" />
			<stop id="stop835" stop-color="#1E313F" offset="100%" />
		</linearGradient>
		<linearGradient gradientUnits="userSpaceOnUse" gradientTransform="scale(0.65900836,1.5174314)" y2="42.93507"
			y1="17.041447" x2="84.725945" x1="82.005341" id="bb99mclszb">
			<stop id="stop838" stop-color="#FFF" offset=".058%" />
			<stop id="stop840" stop-color="#4E5A64" offset="99.67%" />
		</linearGradient>
		<path d="M 0,0 H 26.635 V 26.635 H 0 Z" id="62fm63n7ic" />
	</defs>
	<g transform="matrix(1.8452579,0,0,1.8452579,-0.95954197,-1.3839434)" fill-rule="nonzero" id="g858" style="fill:none">
		<circle cx="69.887001" cy="70.116997" r="69.366997" fill="#1e313f" transform="rotate(-0.192,69.887,70.117)"
			id="circle846" />
		<path fill="#ffffff"
			d="M 113.267,113.21 C 137.062,89.243 136.947,50.584 112.979,26.79 89.012,2.996 50.354,3.111 26.559,27.078 Z"
			opacity="0.2" id="path848" />
		<g id="g856">
			<path fill="#fafbfc"
				d="M 38.37,37.39 C 37.679,37.276 37.045,37.103 36.412,36.988 27.885,35.259 21.72,34.049 21.72,28.115 c 0,-3.687 3.63,-6.625 10.14,-6.625 5.819,0 10.428,2.362 13.424,6.798 l 0.46,0.115 9.277,-9.506 -0.058,-0.346 C 51.276,14.173 46.609,11.119 41.251,9.506 40.502,9.276 39.811,9.103 39.061,8.93 H 39.004 C 38.716,8.872 38.486,8.815 38.198,8.757 V 0.346 H 25.523 v 8.411 c -0.404,0.058 -0.807,0.173 -1.21,0.23 h -0.058 c -5.992,1.441 -11.234,4.552 -15.325,9.334 -1.728,2.88 -2.593,6.337 -2.593,10.313 0,13.596 10.256,17.917 20.28,20.337 1.844,0.461 3.688,0.807 5.474,1.095 6.28,1.152 11.695,2.132 11.695,7.778 0,3.514 -3.86,7.893 -11.926,7.893 -4.782,0 -8.7,-1.614 -11.58,-4.552 -0.173,-0.173 -0.403,-0.345 -0.576,-0.518 L 8.757,68.272 v 0.403 c 1.556,1.844 3.284,3.457 5.128,4.84 0.634,0.46 1.267,0.864 1.901,1.267 h 0.058 c 0.633,0.403 1.325,0.749 1.958,1.095 0,0 0.058,0 0.058,0.057 0.691,0.346 1.325,0.634 2.017,0.922 0.057,0 0.057,0 0.115,0.058 0.691,0.288 1.382,0.518 2.074,0.749 0.057,0 0.115,0 0.115,0.057 0.346,0.115 0.634,0.173 0.98,0.288 h 0.115 c 0.345,0.115 0.691,0.173 1.094,0.288 0.058,0 0.116,0 0.173,0.058 0.288,0.058 0.634,0.115 0.922,0.173 v 8.411 H 38.14 v -8.411 c 0.23,-0.058 0.46,-0.058 0.691,-0.115 h 0.116 c 0.864,-0.173 1.728,-0.404 2.592,-0.692 0.403,-0.115 0.864,-0.288 1.268,-0.403 4.666,-1.729 8.757,-4.61 12.098,-8.527 1.268,-1.498 2.362,-3.053 3.342,-4.782 0.518,-1.843 0.75,-3.917 0.75,-6.107 C 59.053,43.267 47.992,39.292 38.37,37.391 Z"
				transform="translate(38.025,26.502)" id="path850" />
			<path fill="url(#4hqdw92s0a)"
				d="M 8.815,68.617 C 8.181,67.868 7.605,67.119 7.086,66.313 6.856,65.967 6.626,65.621 6.396,65.333 6.337,65.276 6.28,65.16 6.222,65.103 6.049,64.815 5.819,64.469 5.646,64.123 L 5.473,63.778 C 5.3,63.49 5.128,63.144 4.955,62.856 L 4.782,62.51 C 4.609,62.222 4.436,61.877 4.321,61.53 4.263,61.416 4.206,61.243 4.148,61.128 3.975,60.782 3.86,60.494 3.688,60.148 3.63,60.033 3.572,59.918 3.514,59.745 3.399,59.399 3.226,59.053 3.111,58.708 3.111,58.65 3.053,58.535 3.053,58.478 2.765,57.671 2.477,56.864 2.247,56.058 2.247,56 2.189,55.942 2.189,55.828 2.132,55.539 2.016,55.251 1.959,54.963 L 1.786,54.272 C 1.728,53.984 1.671,53.753 1.613,53.465 1.556,53.235 1.498,52.947 1.44,52.716 1.383,52.428 1.325,52.198 1.267,51.909 L 1.095,51.045 C 1.037,50.815 1.037,50.527 0.979,50.296 0.922,50.008 0.864,49.72 0.864,49.374 0.807,49.144 0.807,48.914 0.749,48.626 0.691,48.28 0.691,47.992 0.634,47.646 c 0,-0.23 -0.058,-0.46 -0.058,-0.691 0,-0.404 -0.057,-0.75 -0.057,-1.153 0,-0.172 0,-0.345 -0.058,-0.576 0,-0.576 -0.058,-1.152 -0.058,-1.728 0,-0.576 0,-1.095 0.058,-1.67 v -0.52 c 0,-0.403 0.058,-0.748 0.058,-1.152 0,-0.172 0.057,-0.403 0.057,-0.576 0.058,-0.345 0.058,-0.749 0.115,-1.094 0,-0.173 0.058,-0.346 0.058,-0.519 0.058,-0.46 0.115,-0.864 0.173,-1.267 0,-0.116 0,-0.23 0.057,-0.288 0.058,-0.519 0.173,-1.038 0.288,-1.556 0.058,-0.173 0.058,-0.346 0.116,-0.46 0.057,-0.347 0.173,-0.692 0.23,-1.038 0.058,-0.173 0.115,-0.403 0.115,-0.576 0.058,-0.346 0.173,-0.634 0.23,-0.98 0.058,-0.172 0.116,-0.403 0.174,-0.576 0.115,-0.345 0.23,-0.691 0.288,-1.037 0.057,-0.173 0.115,-0.288 0.173,-0.46 L 3.111,28.346 C 3.169,28.173 3.226,28.058 3.284,27.885 3.399,27.539 3.514,27.251 3.687,26.905 3.745,26.733 3.86,26.56 3.917,26.329 4.033,26.041 4.148,25.811 4.321,25.523 4.436,25.35 4.494,25.119 4.609,24.947 4.724,24.658 4.897,24.428 5.012,24.14 5.128,23.967 5.185,23.794 5.3,23.621 l 0.692,-1.21 c -0.519,1.902 -0.75,3.976 -0.75,6.165 0,7.49 3.17,13.194 9.45,17.054 0.345,6.74 2.304,12.04 5.645,15.44 z"
				transform="translate(38.025,26.502)" id="path852" style="fill:url(#4hqdw92s0a)" />
			<path fill="url(#bb99mclszb)"
				d="m 45.342,28.288 c 1.958,2.938 3.226,6.626 3.687,11.062 1.613,0.749 2.996,1.613 4.263,2.592 4.667,3.63 7.029,8.93 7.029,15.671 0,0.807 -0.058,1.613 -0.115,2.42 v -0.058 c 0.23,-0.518 0.46,-1.094 0.634,-1.67 0.057,-0.173 0.115,-0.289 0.172,-0.461 0.116,-0.404 0.288,-0.807 0.404,-1.21 0.057,-0.173 0.115,-0.404 0.172,-0.576 0.058,-0.23 0.173,-0.519 0.23,-0.75 0.116,-0.345 0.174,-0.633 0.289,-0.979 0.058,-0.23 0.115,-0.518 0.173,-0.749 l 0.173,-0.864 c 0.057,-0.173 0.057,-0.403 0.115,-0.576 0.058,-0.403 0.173,-0.864 0.23,-1.268 0,-0.172 0.058,-0.345 0.058,-0.518 l 0.173,-1.383 c 0,-0.115 0,-0.173 0.057,-0.288 0.058,-0.46 0.116,-0.864 0.116,-1.325 0,-0.115 0,-0.23 0.057,-0.346 0.058,-0.518 0.058,-1.037 0.115,-1.555 v -0.346 c 0,-0.518 0.058,-1.095 0.058,-1.613 0,-0.576 0,-1.152 -0.058,-1.786 0,-0.173 0,-0.346 -0.057,-0.576 0,-0.403 -0.058,-0.807 -0.058,-1.152 0,-0.23 -0.057,-0.461 -0.057,-0.692 -0.058,-0.345 -0.058,-0.691 -0.116,-1.037 0,-0.23 -0.057,-0.46 -0.115,-0.749 -0.057,-0.346 -0.057,-0.634 -0.115,-0.98 -0.058,-0.23 -0.058,-0.518 -0.115,-0.748 -0.058,-0.288 -0.115,-0.634 -0.173,-0.922 -0.058,-0.23 -0.115,-0.519 -0.173,-0.749 l -0.173,-0.864 c -0.057,-0.23 -0.115,-0.519 -0.173,-0.75 -0.057,-0.287 -0.172,-0.575 -0.23,-0.863 -0.058,-0.23 -0.115,-0.519 -0.23,-0.75 -0.058,-0.287 -0.173,-0.518 -0.231,-0.806 -0.058,-0.23 -0.173,-0.518 -0.23,-0.749 -0.116,-0.288 -0.173,-0.518 -0.288,-0.749 -0.116,-0.23 -0.173,-0.518 -0.289,-0.749 -0.115,-0.23 -0.172,-0.518 -0.288,-0.749 -0.115,-0.23 -0.23,-0.518 -0.288,-0.749 L 59.63,25.638 c -0.116,-0.23 -0.23,-0.461 -0.346,-0.75 l -0.346,-0.69 c -0.115,-0.23 -0.23,-0.461 -0.403,-0.692 -0.115,-0.23 -0.23,-0.46 -0.403,-0.634 -0.116,-0.23 -0.288,-0.46 -0.404,-0.69 C 57.613,21.951 57.44,21.778 57.325,21.547 56.922,20.914 56.461,20.28 56,19.647 55.654,19.185 55.309,18.782 54.963,18.379 l -9.621,9.91 z"
				transform="translate(38.025,26.502)" id="path854" style="fill:url(#bb99mclszb)" />
		</g>
	</g>
</svg>