<svg width="350" height="350" xmlns="http://www.w3.org/2000/svg" fill="none">
	<circle cx="175" cy="175" r="175" fill="#fff" />
	<g>
		<title>Layer 1</title>
		<path id="svg_1" fill="#00A3FF"
			d="m88.77178,164.33415l-2.341,3.591c-26.398,40.495 -20.502,93.529 14.174,127.506c20.401,19.988 47.137,29.984 73.875,29.986c0,0 0,0 -85.708,-161.083z" />
		<path id="svg_2" fill="#00A3FF"
			d="m174.48178,213.29115l-85.709,-48.957c85.709,161.083 85.709,161.083 85.709,161.083c0,-35.082 0,-75.282 0,-112.126z"
			opacity="0.6" />
		<path id="svg_3" fill="#00A3FF"
			d="m260.27378,164.33415l2.341,3.591c26.398,40.495 20.502,93.529 -14.174,127.506c-20.4,19.988 -47.137,29.984 -73.875,29.986c0,0 0,0 85.708,-161.083z"
			opacity="0.6" />
		<path id="svg_4" fill="#00A3FF"
			d="m174.56478,213.29115l85.708,-48.957c-85.708,161.083 -85.708,161.083 -85.708,161.083c0,-35.082 0,-75.282 0,-112.126z"
			opacity="0.2" />
		<path id="svg_5" fill="#00A3FF" d="m174.58278,103.93615l0,84.437l73.828,-42.191l-73.828,-42.246z" opacity="0.2" />
		<path id="svg_6" fill="#00A3FF" d="m174.58278,103.93615l-73.881,42.245l73.881,42.192l0,-84.437z" opacity="0.6" />
		<path id="svg_7" fill="#00A3FF" d="m174.58278,32.90015l-73.881,113.284l73.881,-42.364l0,-70.92z" />
		<path stroke="null" id="svg_8" fill="#00A3FF" d="m174.58278,103.82115l73.884,42.366l-73.884,-113.341l0,70.975z"
			opacity="0.6" />
	</g>
</svg>